<svg version="1.1" id="Layer_1" xmlns="http://www.w3.org/2000/svg" xmlns:xlink="http://www.w3.org/1999/xlink" x="0px" y="0px"
	 width="100%" viewBox="0 0 217 232" enable-background="new 0 0 217 232" xml:space="preserve">
<path fill="#F6739F" opacity="1.000000" stroke="none" 
	d="
M1.000000,104.000000 
	C1.000000,69.715958 1.000000,35.431923 1.000000,1.073941 
	C73.333282,1.073941 145.666626,1.073941 218.000000,1.073941 
	C218.000000,4.035517 218.000000,7.031194 217.604187,10.514245 
	C213.907120,10.294475 212.821915,12.471186 211.635757,15.009426 
	C209.258881,16.664419 207.465134,19.179234 205.192947,19.733801 
	C202.333115,20.431799 201.822113,21.679630 201.801270,24.294445 
	C199.693878,25.668829 197.813751,26.798685 195.590729,27.957180 
	C194.502350,28.658995 193.756866,29.332172 193.005692,30.002522 
	C193.000000,29.999695 193.005814,30.010113 192.740875,30.135078 
	C191.969879,30.840752 191.463821,31.421461 190.638611,32.006428 
	C189.892410,32.683620 189.465393,33.356560 189.030121,34.356194 
	C189.016434,35.118454 189.011002,35.554016 189.013748,36.384598 
	C190.679062,41.828941 193.380692,42.436733 199.499603,38.724487 
	C200.998718,36.149193 202.497833,33.573902 204.041534,30.683117 
	C204.711014,29.897564 205.335922,29.427498 206.302612,28.907923 
	C208.761948,26.904343 210.879486,24.950274 213.313232,22.996719 
	C214.266220,22.976442 214.903046,22.955650 215.539856,22.934860 
	C215.400085,22.578896 215.119843,22.213099 215.143936,21.868607 
	C215.275024,19.995731 214.742691,17.578215 218.000000,18.000000 
	C218.000000,44.354229 218.000000,70.708458 217.641327,97.490059 
	C216.271179,97.987259 214.385010,97.994659 214.374908,98.135971 
	C214.040314,102.823669 208.502716,102.568283 206.646912,106.056213 
	C205.221436,106.733047 204.123367,107.380486 202.696411,107.983414 
	C201.678940,107.002876 201.000824,106.058907 200.299484,105.132538 
	C199.089478,103.534241 197.864990,101.946892 196.690536,100.325790 
	C196.734482,100.296631 196.630295,100.280167 196.738739,99.893845 
	C195.867447,98.694710 194.887695,97.881905 193.933289,97.039047 
	C193.958603,97.009010 193.963165,97.087448 193.858917,96.853149 
	C193.481506,96.422478 193.208313,96.226112 192.968842,96.032089 
	C193.002579,96.034431 192.943802,96.067924 192.953735,95.693062 
	C192.401047,94.170036 192.102158,92.307106 191.234100,91.986832 
	C184.314285,89.433731 183.943481,82.719360 182.503723,77.313309 
	C181.038330,71.810974 177.344467,67.815308 173.827118,64.742065 
	C170.523392,61.855488 170.228806,59.965336 171.227905,56.599537 
	C171.524963,55.598797 171.524033,54.509602 171.769440,52.611977 
	C170.044922,53.476521 168.631577,53.705196 168.212479,54.475098 
	C165.940491,58.648849 162.697647,57.698689 158.828506,57.352608 
	C151.307388,56.679871 143.642151,56.581867 136.140121,57.310898 
	C133.609909,57.556774 131.393005,61.026604 128.859924,63.311214 
	C126.722748,65.119637 124.916206,66.944084 122.746780,68.068214 
	C120.855034,69.048462 118.110016,70.285751 116.507339,69.605728 
	C107.327133,65.710518 98.209122,66.246185 88.678070,68.622009 
	C86.943977,68.247917 85.482010,68.111130 83.940109,67.887962 
	C83.860168,67.801575 83.882904,67.567276 83.783249,67.230614 
	C83.074326,66.650200 82.465073,66.406441 81.886002,66.079628 
	C81.916199,65.996567 81.880402,66.168747 81.800865,65.916237 
	C81.435143,65.473122 81.148949,65.282509 80.880455,65.130112 
	C80.898148,65.168327 80.819160,65.197540 80.871185,64.869537 
	C79.689735,61.688320 77.450897,61.970943 74.731110,62.665062 
	C73.925316,62.593937 73.467621,62.525692 72.920448,62.136806 
	C67.963860,57.638939 62.515537,58.529858 56.731537,60.097588 
	C56.286457,60.268078 56.110554,60.341732 55.716698,60.308365 
	C55.498749,60.201347 55.026344,60.089325 54.767864,59.806961 
	C49.627705,58.384575 45.732960,59.712448 43.029182,64.072311 
	C42.995678,64.042397 43.082767,64.064377 42.772667,64.066147 
	C41.980042,64.403412 41.497517,64.738907 41.013546,65.040443 
	C41.012100,65.006485 41.068230,65.044830 40.696445,65.029350 
	C39.234283,66.038994 38.143909,67.064117 37.032539,68.051079 
	C37.011551,68.012917 37.086491,68.057320 36.702442,68.043915 
	C35.217957,69.389046 34.117519,70.747574 32.934185,72.316833 
	C32.669056,72.787071 32.423817,72.954041 31.742447,73.026321 
	C26.446651,75.706787 24.316355,80.221863 22.979189,85.390373 
	C22.221426,88.319336 20.994427,91.126907 19.695286,94.145767 
	C18.959974,95.227165 18.508142,96.151947 18.058647,97.071976 
	C18.060984,97.067223 18.084133,97.091866 17.698048,97.070618 
	C12.388518,96.956917 12.690257,101.539070 11.195616,104.256554 
	C8.677721,108.834457 8.188326,109.085007 4.477476,105.652649 
	C3.578171,104.820824 2.172713,104.536232 1.000000,104.000000 
M43.538952,34.231907 
	C43.291359,34.684017 43.043762,35.136131 42.796169,35.588242 
	C43.198055,35.725670 43.599945,35.863098 44.428837,36.220791 
	C44.695946,36.415169 44.888626,36.666592 45.017021,37.689621 
	C45.754711,39.919727 46.509792,42.096977 49.244255,38.897671 
	C49.162785,38.931732 49.081318,38.965790 48.586224,38.783989 
	C48.326183,38.597214 48.139046,38.354286 48.397213,37.496010 
	C48.926628,36.334515 49.456043,35.173019 49.999687,34.000130 
	C49.999687,34.000130 50.010780,33.986118 50.692421,33.905712 
	C51.818386,32.967209 52.944355,32.028706 54.790363,31.011309 
	C58.082527,28.803020 63.280224,28.207521 61.650524,21.827251 
	C63.096176,22.411642 63.927540,22.747711 64.906998,23.143646 
	C65.990150,21.032406 67.041275,18.983603 68.092392,16.934799 
	C67.711082,16.608532 67.329773,16.282267 66.948456,15.956000 
	C63.220543,18.416393 59.397694,20.750980 55.839470,23.436232 
	C55.065727,24.020142 55.239937,25.860188 54.325981,27.007839 
	C53.885292,27.006290 53.444599,27.004742 52.284691,27.034994 
	C50.474205,29.024965 48.663719,31.014936 46.214355,33.010712 
	C45.482716,33.351704 44.751072,33.692696 44.003475,33.997078 
	C44.003475,33.997078 44.033569,34.024643 43.538952,34.231907 
M180.433121,42.097496 
	C180.365387,44.084366 180.089874,46.105003 180.402725,48.030025 
	C180.466400,48.421768 183.769684,48.804787 183.841187,48.596115 
	C184.448929,46.822689 184.654419,44.911411 184.991547,42.132206 
	C184.970322,39.677673 185.174393,37.189655 184.816971,34.785095 
	C184.674072,33.823910 183.293167,33.046753 182.475815,32.185818 
	C181.669479,33.061455 180.206207,33.920712 180.183899,34.815895 
	C180.124435,37.201645 180.685028,39.602856 180.433121,42.097496 
M92.778419,38.264786 
	C83.342735,44.276932 81.511307,45.985367 80.791191,49.447014 
	C87.895477,47.844795 96.496864,40.711170 96.308083,36.176079 
	C95.187553,36.735329 94.207825,37.224300 92.778419,38.264786 
M156.742523,26.816084 
	C158.023285,26.524050 159.304047,26.232018 161.300186,25.776867 
	C160.821777,24.388601 160.612625,22.536440 159.606796,21.373041 
	C159.081070,20.764946 156.071793,21.205009 156.035065,21.449644 
	C155.776550,23.171053 155.999786,24.964813 156.742523,26.816084 
M12.079339,22.857132 
	C11.982334,23.166340 11.902067,23.482695 11.775467,23.779268 
	C11.747103,23.845716 11.472184,23.895330 11.452881,23.864296 
	C10.970597,23.088976 10.507388,22.301790 10.040806,21.516703 
	C9.914063,24.453762 9.584542,27.912159 13.881289,26.772068 
	C14.833291,26.519464 15.211654,24.104942 15.854150,22.685881 
	C14.644163,22.528566 13.434177,22.371252 12.079339,22.857132 
M74.372200,15.644483 
	C77.437180,11.543312 74.501968,11.189142 70.648842,10.470633 
	C70.340950,13.352399 70.072212,15.867760 69.718201,19.181217 
	C71.854248,17.531807 72.841835,16.769209 74.372200,15.644483 
z"/>
<path fill="#F6739F" opacity="1.000000" stroke="none" 
	d="
M218.000000,112.000000 
	C218.000000,147.020889 218.000000,182.041794 217.613007,217.378845 
	C215.255127,217.489136 213.284622,217.108215 211.313339,217.104309 
	C190.521957,217.063065 169.730438,217.082001 148.938965,217.084259 
	C147.157043,217.084457 145.375107,217.084274 143.721603,217.084274 
	C143.383057,215.368423 143.164948,214.262955 143.027679,212.789856 
	C144.390091,211.941269 145.671677,211.460327 147.380188,210.986389 
	C149.385147,210.898193 150.963181,210.803009 153.486160,210.650833 
	C151.981216,206.361298 152.138580,202.085205 146.707092,201.215881 
	C145.314163,201.953247 144.183548,202.486862 142.668945,203.021729 
	C137.863144,204.282730 132.884247,210.078186 131.640472,215.006805 
	C130.554337,215.720535 129.825302,216.425034 129.070801,217.465576 
	C129.046661,218.027237 129.048004,218.252884 129.042709,218.479126 
	C129.036087,218.479752 129.040482,218.443741 128.579620,218.539917 
	C115.761299,218.597931 103.403824,218.559753 91.068619,218.345886 
	C91.090889,218.170197 91.024742,217.822250 90.942352,217.507355 
	C89.925186,216.792389 88.990395,216.392319 87.868362,215.754120 
	C87.115280,215.331970 86.549431,215.147980 85.832321,214.755920 
	C85.123344,214.693802 84.565620,214.839722 83.622299,215.048462 
	C81.407753,215.765472 79.583717,216.971558 77.749092,216.987869 
	C60.643578,217.140045 43.535343,216.992828 26.430019,217.155624 
	C21.596872,217.201599 16.770706,217.981110 11.661088,218.467133 
	C11.194075,218.480972 11.007311,218.451920 10.806099,218.224075 
	C10.595889,218.167145 10.400129,218.309021 9.922243,218.511246 
	C9.449284,218.547562 9.258451,218.523544 8.837609,218.147491 
	C6.071732,217.530304 3.535866,217.265152 1.000000,217.000000 
	C1.000000,184.979111 1.000000,152.958206 1.301611,120.591469 
	C2.954089,119.773750 4.382864,119.450157 5.635781,118.791855 
	C7.146975,117.997864 8.508938,116.919853 10.250436,116.013229 
	C11.378404,116.705902 12.191430,117.350128 13.341294,118.001442 
	C14.127510,118.003250 14.576889,117.997963 15.011950,117.997513 
	C14.997630,118.002342 15.007598,117.973824 15.025063,118.281494 
	C15.409383,119.039795 15.776238,119.490417 16.092991,119.948303 
	C16.042885,119.955559 16.113935,119.883415 16.080650,120.266769 
	C16.384920,121.735390 16.541897,122.923668 17.091923,123.887703 
	C19.241930,127.656006 21.414421,131.419556 23.777594,135.055496 
	C25.559929,137.797760 27.645487,140.342957 29.775187,143.283661 
	C32.307816,146.110001 34.661335,148.628510 37.176315,151.415527 
	C38.246605,152.108276 39.155437,152.532547 40.032310,152.974060 
	C40.000347,152.991302 40.039024,152.929810 40.080345,153.276337 
	C42.810970,155.734024 45.500271,157.845154 48.852718,160.476868 
	C42.041264,160.619308 42.424671,164.237213 43.700661,169.085114 
	C47.652920,165.499985 53.710186,167.643890 56.654301,162.441528 
	C57.382214,161.155273 59.678566,160.344620 61.368717,160.096146 
	C65.576767,159.477478 70.060211,159.996796 74.045670,158.785019 
	C79.054619,157.262039 83.602112,153.918228 89.067261,156.928741 
	C89.026505,156.954819 89.057243,156.863083 89.193314,157.202744 
	C94.756775,162.908752 101.247253,160.948120 107.604385,160.289276 
	C113.577469,159.670258 119.493286,153.760590 125.591393,159.982285 
	C125.679817,160.072495 125.920776,159.994278 126.078178,160.038605 
	C129.632675,161.040024 133.402710,161.602646 136.668625,163.197266 
	C139.202316,164.434357 141.105972,166.961761 142.814667,168.490616 
	C149.427246,165.233643 155.572586,162.522614 161.364960,159.196838 
	C163.651184,157.884186 165.150848,155.201599 167.125351,153.035431 
	C167.242035,152.928055 167.551346,152.857895 167.847504,152.798340 
	C168.389023,152.436874 168.634384,152.134949 168.830093,151.842300 
	C168.780441,151.851578 168.761627,151.752335 169.129120,151.795563 
	C170.242218,150.811890 170.987823,149.784973 171.775162,148.760345 
	C171.816895,148.762619 171.820480,148.846146 172.072556,148.772919 
	C172.495193,148.407333 172.665741,148.114960 172.784180,147.820587 
	C172.732071,147.818604 172.723846,147.714630 173.083191,147.760193 
	C173.992233,146.899353 174.541916,145.992966 175.484070,145.064362 
	C179.966141,143.150085 184.043411,141.230774 188.150726,139.378052 
	C190.063766,138.515091 192.035034,137.781204 194.339615,136.948212 
	C200.267944,135.580673 199.832336,129.598297 202.791107,126.225052 
	C203.063858,125.914108 201.634186,124.109901 200.995621,122.599197 
	C200.999817,121.132988 201.003403,120.066650 201.409760,119.011330 
	C204.189529,118.844223 208.560745,118.962303 208.637955,118.442574 
	C209.496826,112.660095 213.755569,112.451828 218.000000,112.000000 
M66.792679,193.981476 
	C69.442764,192.693558 72.296127,191.692657 74.668442,190.012543 
	C76.145920,188.966187 77.557396,186.964005 77.741119,185.255585 
	C77.864388,184.109268 75.751808,181.655228 74.698532,181.687866 
	C72.904663,181.743454 70.510735,182.861542 69.534386,184.315720 
	C67.868629,186.796692 66.458923,187.212418 63.805706,186.055359 
	C62.713501,185.579041 60.072552,186.029327 59.802074,186.715179 
	C57.905632,191.524063 54.141323,193.640167 49.098881,194.358612 
	C50.671520,198.483887 50.019032,200.872101 45.908489,202.555695 
	C43.828304,203.407715 42.663338,206.494263 41.084583,208.570526 
	C41.508205,209.230682 41.931828,209.890823 42.355450,210.550980 
	C45.460594,209.634460 48.769825,209.125778 51.619911,207.699554 
	C55.292633,205.861649 58.347397,202.219864 62.131546,201.334137 
	C65.893127,200.453690 66.198753,198.870361 65.997452,195.337357 
	C66.014946,194.889877 66.032440,194.442383 66.792679,193.981476 
M203.001114,152.543625 
	C204.195786,153.969040 205.390442,155.394470 206.585114,156.819885 
	C207.378479,155.916565 208.907715,154.917526 208.805359,154.130722 
	C208.617508,152.686508 207.786285,150.887939 206.634796,150.123520 
	C205.341751,149.265137 202.944382,148.433319 203.001114,152.543625 
M160.994293,195.397995 
	C159.509109,194.626495 158.080582,193.664032 156.505157,193.196579 
	C156.014420,193.050949 154.431747,194.569534 154.527740,194.774628 
	C155.465942,196.779404 156.653900,198.667282 158.463058,201.779144 
	C159.738235,198.966629 160.370270,197.572601 160.994293,195.397995 
M15.022469,193.341492 
	C13.374949,193.858093 11.536607,194.106079 10.197746,195.057175 
	C9.802940,195.337631 10.527515,197.822906 11.308271,198.875687 
	C11.726957,199.440247 14.165102,199.447357 14.301104,199.122940 
	C14.987471,197.485657 15.216389,195.656616 15.022469,193.341492 
M36.661835,171.012268 
	C35.370426,172.585144 34.079021,174.158020 32.787613,175.730896 
	C33.237423,176.305923 33.687229,176.880951 34.137039,177.455963 
	C36.040012,176.761047 37.942989,176.066116 39.845963,175.371185 
	C39.059437,173.918564 38.272915,172.465958 36.661835,171.012268 
M107.019997,195.617203 
	C108.042198,196.736694 108.921173,198.090073 110.163177,198.850616 
	C110.606392,199.122040 112.689781,197.972687 112.700233,197.445587 
	C112.726402,196.125687 112.155472,193.767014 111.535080,193.669830 
	C110.140175,193.451309 108.570030,194.351379 107.019997,195.617203 
M88.566040,213.514282 
	C88.566040,213.514282 88.479439,213.561478 88.566040,213.514282 
z"/>
<path fill="#282F38" opacity="1.000000" stroke="none" 
	d="
M9.067620,218.499512 
	C9.258451,218.523544 9.449284,218.547562 10.078522,218.565033 
	C10.516928,218.558472 10.820547,218.422867 10.820547,218.422867 
	C11.007311,218.451920 11.194075,218.480972 12.032625,218.619019 
	C17.617668,219.086639 22.550089,219.722061 27.484381,219.736954 
	C34.321777,219.757614 41.160583,219.311829 48.097626,219.213318 
	C48.466152,219.257370 48.735840,219.153854 49.339035,218.992966 
	C50.119442,218.978333 50.566338,219.021072 51.327156,219.333618 
	C58.050804,219.735214 64.461472,219.994492 70.869865,219.946823 
	C74.243881,219.921738 77.613899,219.360474 81.412155,218.957306 
	C83.568726,218.934387 85.298874,218.995514 87.339851,219.327606 
	C101.048553,219.722260 114.446335,219.862564 127.844490,219.923096 
	C128.553329,219.926300 129.265228,219.254654 130.058640,218.733963 
	C130.141586,218.570755 130.241699,218.218567 130.206024,218.209656 
	C130.170334,218.200745 130.111877,218.245407 130.337570,218.376129 
	C131.055130,218.661804 131.547012,218.816772 131.920441,219.033356 
	C131.875076,219.052795 131.948135,219.010620 132.385315,218.869873 
	C133.493011,218.825089 134.236572,218.878891 135.277893,219.228561 
	C136.212860,219.677231 136.849854,219.962418 137.487320,219.963531 
	C154.257782,219.992828 171.028351,220.010544 187.798660,219.956024 
	C188.869675,219.952545 189.938736,219.349869 191.378601,218.957733 
	C192.496399,218.936203 193.244308,218.982895 194.233475,219.280945 
	C195.976959,219.380325 197.479187,219.228348 199.392532,219.142883 
	C205.869110,219.139603 211.934555,219.069809 218.000000,219.000000 
	C218.000000,223.657974 218.000000,228.315964 218.000000,232.969711 
	C145.666656,232.965485 73.333321,232.965485 1.000000,232.965485 
	C1.000000,228.938416 1.000000,224.945877 1.384787,220.419922 
	C4.202256,219.424194 6.634938,218.961853 9.067620,218.499512 
M40.761345,226.141571 
	C40.667004,226.206940 40.482861,226.299484 40.493080,226.333191 
	C40.553894,226.534073 40.659595,226.721375 40.959202,227.709244 
	C42.071091,227.451004 43.182980,227.192764 44.643673,226.944458 
	C44.643673,226.944458 44.989017,226.994415 45.004211,227.684372 
	C46.031685,227.358597 47.756519,227.253738 47.944004,226.661880 
	C48.356590,225.359406 47.992775,223.810974 47.609734,221.728378 
	C45.051987,220.309448 43.576870,221.182144 42.788670,224.377090 
	C42.750530,224.539368 42.712391,224.701660 42.385010,224.961014 
	C42.385010,224.961014 42.084972,225.016449 41.584049,225.205963 
	C41.393517,225.500320 41.202984,225.794678 41.011242,226.011795 
	C41.011242,226.011795 41.088177,226.018723 40.761345,226.141571 
M29.462652,227.998322 
	C29.462652,227.998322 29.953621,228.036331 30.662689,228.038712 
	C30.474653,227.061127 30.286617,226.083557 29.643644,224.971939 
	C29.643644,224.971939 29.172167,224.920547 28.784922,224.356644 
	C27.894146,224.267136 27.003370,224.177628 25.417915,223.944489 
	C24.650452,223.944489 23.882986,223.944489 23.115522,223.944489 
	C26.045019,223.863861 21.591982,229.427612 26.789898,227.817276 
	C27.201338,227.662964 27.612778,227.508652 28.314108,227.944412 
	C28.533009,227.954330 28.751907,227.964249 29.462652,227.998322 
M12.067174,225.704926 
	C12.286884,226.495361 12.506596,227.285797 12.726306,228.076233 
	C13.197982,227.086304 13.669657,226.096390 14.716444,225.231445 
	C15.136512,226.142670 15.556580,227.053894 16.480772,227.761169 
	C16.938627,227.505310 17.396482,227.249451 18.370348,226.629486 
	C18.207224,225.761185 18.044100,224.892883 17.211407,224.043243 
	C16.774529,224.116898 16.337648,224.190552 14.967384,224.032425 
	C14.089854,224.369034 13.212325,224.705643 12.067174,225.704926 
M12.919122,222.696121 
	C12.743662,222.704346 12.568201,222.712585 12.392736,222.720810 
	C12.484233,222.802811 12.575729,222.884796 12.919122,222.696121 
z"/>
<path fill="#C4688C" opacity="1.000000" stroke="none" 
	d="
M218.000000,218.750000 
	C211.934555,219.069809 205.869110,219.139603 198.981125,219.070816 
	C196.769791,218.964661 195.380997,218.997116 193.992203,219.029572 
	C193.244308,218.982895 192.496399,218.936203 190.911957,218.895599 
	C182.946793,218.892593 175.817719,218.933029 168.689728,218.862778 
	C158.101257,218.758423 147.513565,218.575775 137.054276,218.079620 
	C138.529373,216.165894 139.875748,214.598999 141.400864,213.055832 
	C141.579605,213.079544 141.940048,213.068497 142.192535,213.081879 
	C142.612274,213.115982 142.779541,213.136734 142.946823,213.157486 
	C143.164948,214.262955 143.383057,215.368423 143.721603,217.084274 
	C145.375107,217.084274 147.157043,217.084457 148.938965,217.084259 
	C169.730438,217.082001 190.521957,217.063065 211.313339,217.104309 
	C213.284622,217.108215 215.255127,217.489136 217.613007,217.847504 
	C218.000000,218.000000 218.000000,218.500000 218.000000,218.750000 
z"/>
<path fill="#EA779E" opacity="1.000000" stroke="none" 
	d="
M13.004456,117.994347 
	C12.191430,117.350128 11.378404,116.705902 10.225138,115.673538 
	C9.065422,113.963844 8.245946,112.642288 7.329429,111.164238 
	C4.980256,112.959038 2.990128,114.479515 1.000000,116.000000 
	C1.000000,112.307091 1.000000,108.614182 1.000000,104.460632 
	C2.172713,104.536232 3.578171,104.820824 4.477476,105.652649 
	C8.188326,109.085007 8.677721,108.834457 11.195616,104.256554 
	C12.690257,101.539070 12.388518,96.956917 17.645100,97.420380 
	C17.305952,98.710808 16.396599,99.538979 16.001602,100.565132 
	C14.088410,105.535294 9.042573,110.149658 13.786885,116.175415 
	C13.364798,116.894882 13.184626,117.444618 13.004456,117.994347 
z"/>
<path fill="#F6739F" opacity="1.000000" stroke="none" 
	d="
M218.000000,111.545891 
	C213.755569,112.451828 209.496826,112.660095 208.637955,118.442574 
	C208.560745,118.962303 204.189529,118.844223 201.491119,118.790718 
	C201.101166,118.031631 201.032578,117.504181 200.992554,116.596916 
	C201.904724,115.481857 202.814240,114.775276 203.666138,114.004959 
	C205.114044,112.695732 206.525650,111.346344 208.337708,110.010330 
	C211.149002,110.115829 213.415878,110.367554 214.481369,107.170036 
	C215.115463,105.267151 216.792068,103.711662 218.000000,102.000000 
	C218.000000,105.030594 218.000000,108.061188 218.000000,111.545891 
z"/>
<path fill="#E47DA0" opacity="1.000000" stroke="none" 
	d="
M218.000000,101.600006 
	C216.792068,103.711662 215.115463,105.267151 214.481369,107.170036 
	C213.415878,110.367554 211.149002,110.115829 208.082764,109.765976 
	C207.286530,108.359024 207.130432,107.192909 206.974335,106.026802 
	C208.502716,102.568283 214.040314,102.823669 214.374908,98.135971 
	C214.385010,97.994659 216.271179,97.987259 217.641327,97.958717 
	C218.000000,99.066673 218.000000,100.133339 218.000000,101.600006 
z"/>
<path fill="#E8749C" opacity="1.000000" stroke="none" 
	d="
M218.000000,17.562500 
	C214.742691,17.578215 215.275024,19.995731 215.143936,21.868607 
	C215.119843,22.213099 215.400085,22.578896 215.539856,22.934860 
	C214.903046,22.955650 214.266220,22.976442 213.081329,22.744175 
	C211.448624,22.026363 210.363998,21.561609 210.491241,21.616131 
	C211.094452,18.981831 211.550461,16.990383 212.006470,14.998938 
	C212.821915,12.471186 213.907120,10.294475 217.604187,11.000810 
	C218.000000,13.041667 218.000000,15.083333 218.000000,17.562500 
z"/>
<path fill="#F894B7" opacity="1.000000" stroke="none" 
	d="
M1.000000,116.399994 
	C2.990128,114.479515 4.980256,112.959038 7.329429,111.164238 
	C8.245946,112.642288 9.065422,113.963844 9.910196,115.625092 
	C8.508938,116.919853 7.146975,117.997864 5.635781,118.791855 
	C4.382864,119.450157 2.954089,119.773750 1.301611,120.122810 
	C1.000000,118.933327 1.000000,117.866661 1.000000,116.399994 
z"/>
<path fill="#C4688C" opacity="1.000000" stroke="none" 
	d="
M8.837609,218.147491 
	C6.634938,218.961853 4.202256,219.424194 1.384787,219.943268 
	C1.000000,219.250000 1.000000,218.500000 1.000000,217.375000 
	C3.535866,217.265152 6.071732,217.530304 8.837609,218.147491 
z"/>
<path fill="#FAF9FA" opacity="1.000000" stroke="none" 
	d="
M14.028803,116.005684 
	C9.042573,110.149658 14.088410,105.535294 16.001602,100.565132 
	C16.396599,99.538979 17.305952,98.710808 18.031185,97.441620 
	C18.084133,97.091866 18.060984,97.067223 18.356419,97.041771 
	C19.103184,96.670441 19.554514,96.324562 20.316219,95.813805 
	C21.762552,94.337524 23.593102,93.176620 23.915464,91.688927 
	C25.391869,84.875336 27.527800,78.438103 32.115570,73.028473 
	C32.423817,72.954041 32.669056,72.787071 33.228928,72.163620 
	C34.766541,70.552223 35.926514,69.304771 37.086491,68.057320 
	C37.086491,68.057320 37.011551,68.012917 37.357475,68.001427 
	C38.825008,67.008232 39.946621,66.026535 41.068230,65.044830 
	C41.068230,65.044830 41.012100,65.006485 41.312374,65.001877 
	C42.102688,64.686310 42.592728,64.375343 43.082767,64.064377 
	C43.082767,64.064377 42.995678,64.042397 43.395973,64.012848 
	C47.458641,62.961433 51.121017,61.939564 55.000793,60.898102 
	C55.507023,60.801414 55.745842,60.647041 55.934647,60.415386 
	C56.110554,60.341732 56.286457,60.268078 57.150146,60.156029 
	C59.242435,60.163013 60.646942,60.208385 62.336555,60.469856 
	C63.834385,60.748425 65.047112,60.810898 66.572830,61.045151 
	C68.927193,61.630440 70.968559,62.043945 73.009933,62.457451 
	C73.467621,62.525692 73.925316,62.593937 75.019089,62.871895 
	C77.376503,63.786919 79.097832,64.492233 80.819160,65.197540 
	C80.819160,65.197540 80.898148,65.168327 80.941147,65.396225 
	C81.282906,65.805672 81.581650,65.987206 81.880402,66.168747 
	C81.880402,66.168747 81.916199,65.996567 82.042633,66.358414 
	C82.740349,67.002594 83.311623,67.284935 83.882904,67.567276 
	C83.882904,67.567276 83.860168,67.801575 84.073944,68.195541 
	C85.841881,68.679451 87.396042,68.769379 88.950203,68.859306 
	C98.209122,66.246185 107.327133,65.710518 116.507339,69.605728 
	C118.110016,70.285751 120.855034,69.048462 122.746780,68.068214 
	C124.916206,66.944084 126.722748,65.119637 129.214539,63.246918 
	C131.383072,62.131920 132.977081,61.239185 134.672623,60.628208 
	C145.146790,56.853924 155.386047,56.572647 164.774078,62.933655 
	C163.806244,63.300560 163.184021,63.629848 162.561798,63.959137 
	C162.859100,64.235451 163.156418,64.511765 163.453720,64.788071 
	C164.004776,64.149666 164.555832,63.511261 165.462540,62.880058 
	C175.973145,69.349579 183.883209,77.183151 182.505692,89.327629 
	C186.471848,91.888725 189.707825,93.978325 192.943802,96.067924 
	C192.943802,96.067924 193.002579,96.034431 193.057770,96.278702 
	C193.396362,96.711128 193.679764,96.899292 193.963165,97.087448 
	C193.963165,97.087448 193.958603,97.009010 194.035248,97.346405 
	C194.951355,98.549248 195.790833,99.414703 196.630295,100.280167 
	C196.630295,100.280167 196.734482,100.296631 196.650299,100.702271 
	C197.470001,105.017998 198.373871,108.928078 199.222260,113.214005 
	C199.176239,114.094597 199.185715,114.599358 199.112137,115.468185 
	C198.922852,116.572296 198.816620,117.312332 198.550201,118.190643 
	C198.201584,118.554543 198.097015,118.813995 198.096100,119.073959 
	C198.115936,119.040634 198.154099,119.108139 197.827118,119.116882 
	C197.525284,119.812874 197.550400,120.500122 197.559067,121.399536 
	C197.542603,121.611694 197.294250,121.957306 196.941528,122.109909 
	C195.779205,124.629410 194.969604,126.996307 194.086304,129.691895 
	C190.960312,135.735458 186.326630,139.466080 179.907196,140.834518 
	C175.955933,135.623138 173.907211,140.991547 171.667740,142.315659 
	C169.058456,143.858429 171.948746,144.972809 172.971985,146.331360 
	C172.847046,146.977386 172.785446,147.346008 172.723846,147.714630 
	C172.723846,147.714630 172.732071,147.818604 172.515320,147.867554 
	C172.139221,148.226379 171.979858,148.536270 171.820496,148.846146 
	C171.820480,148.846146 171.816895,148.762619 171.463715,148.818695 
	C170.327576,149.833954 169.544601,150.793137 168.761627,151.752335 
	C168.761627,151.752335 168.780441,151.851578 168.540161,151.903870 
	C168.050354,152.256744 167.800842,152.557312 167.551346,152.857895 
	C167.551346,152.857895 167.242035,152.928055 166.824265,153.146774 
	C164.609650,154.578995 162.812790,155.792511 160.677795,157.000839 
	C159.888748,156.992004 159.437820,156.988342 158.989502,156.575684 
	C158.596298,154.869278 158.019104,152.420547 157.832397,152.449951 
	C155.608490,152.800385 153.442673,153.519623 150.415039,154.383850 
	C152.277237,155.742218 153.137726,156.369888 153.853470,157.277832 
	C152.803345,158.605042 151.897964,159.651993 150.570923,160.828186 
	C139.729813,162.821701 130.261627,160.798279 121.716713,154.362503 
	C120.722321,153.613556 118.387100,153.480148 117.350655,154.134293 
	C108.325249,159.830612 98.977776,161.014206 89.057243,156.863083 
	C89.057243,156.863083 89.026505,156.954819 88.893417,156.641907 
	C86.132584,153.197128 83.307816,150.896042 78.958382,154.114594 
	C78.432289,154.300888 78.203964,154.507370 77.822311,154.883652 
	C77.600159,154.977386 77.122055,155.040482 76.912689,155.094803 
	C76.431564,155.267776 76.216904,155.452698 75.724121,155.841522 
	C74.006538,156.346542 72.624176,156.713928 71.011292,157.118530 
	C70.476883,157.260681 70.236534,157.447342 69.643204,157.815460 
	C66.118881,158.132538 63.011051,158.349838 59.705048,158.320679 
	C56.941319,157.744720 54.375763,157.415207 51.431458,157.076416 
	C47.381477,155.688034 43.710251,154.308929 40.039024,152.929810 
	C40.039024,152.929810 40.000347,152.991302 39.867199,152.706421 
	C38.827656,151.996704 37.921257,151.571869 37.014858,151.147034 
	C34.661335,148.628510 32.307816,146.110001 29.782280,142.945801 
	C28.233227,139.504150 26.412607,136.834396 25.573351,133.885361 
	C23.927279,128.101303 20.867399,123.470375 16.113935,119.883415 
	C16.113935,119.883415 16.042885,119.955559 16.064133,119.646530 
	C15.726119,118.882950 15.366858,118.428383 15.007598,117.973824 
	C15.007598,117.973824 14.997630,118.002342 14.982452,117.705536 
	C14.654451,116.941055 14.341627,116.473366 14.028803,116.005684 
M52.671497,116.902679 
	C55.102551,115.114159 57.533604,113.325638 60.368557,110.941315 
	C62.170586,108.625916 63.972610,106.310524 66.095345,103.146797 
	C67.357323,97.727303 65.467766,93.410530 61.445107,89.835571 
	C60.207077,88.735336 58.886932,87.708115 57.769913,86.495041 
	C55.263527,83.773102 55.483444,81.050117 58.331482,78.772499 
	C60.822361,76.780495 63.403500,75.457703 65.900848,79.073288 
	C66.380394,79.767555 67.954689,79.705666 69.023933,79.992615 
	C69.081505,78.969238 69.480675,77.810265 69.137573,76.945946 
	C67.644875,73.185699 63.417179,71.830696 59.020447,73.522766 
	C50.324482,76.869400 49.629139,85.003700 57.445591,91.945793 
	C64.131584,97.883896 64.193115,103.093689 56.820541,108.472931 
	C56.018101,108.648994 55.092968,109.171928 54.435101,108.939240 
	C51.983315,108.072075 48.566795,107.592690 47.473553,105.782982 
	C45.906780,103.189407 47.162193,100.337395 51.049736,99.849197 
	C51.524265,99.789604 52.348312,97.917168 52.096455,97.591354 
	C51.505764,96.827217 50.296494,95.968468 49.451469,96.072525 
	C45.729252,96.530899 43.557957,98.898163 42.947273,102.537170 
	C41.950176,108.478813 45.687012,112.434380 52.870731,113.923370 
	C52.587570,114.955978 52.304413,115.988594 51.427380,117.000099 
	C50.900169,117.205002 50.372959,117.409904 49.845749,117.614815 
	C50.136330,117.933304 50.426910,118.251801 50.717487,118.570290 
	C51.138714,118.040031 51.559940,117.509766 52.671497,116.902679 
M126.106491,136.705246 
	C128.405334,140.642715 131.155075,139.022507 133.861862,137.931488 
	C133.905655,137.481445 133.949432,137.031418 133.993225,136.581375 
	C132.041138,136.380356 130.089035,136.179321 128.424332,135.190933 
	C130.121201,133.562515 131.818069,131.934097 133.729889,130.099396 
	C132.033798,129.875458 130.470322,129.669037 128.775116,129.445221 
	C128.775116,127.035103 128.775116,124.787872 128.775116,122.634712 
	C130.662598,122.103806 132.298279,121.643723 133.933975,121.183647 
	C133.824036,120.830750 133.714096,120.477852 133.604156,120.124954 
	C131.145508,120.124954 128.686874,120.124954 126.259308,120.124954 
	C126.259308,125.703964 126.259308,130.813843 126.106491,136.705246 
M154.060364,76.852814 
	C154.452316,74.154709 154.844254,71.456604 155.236206,68.758507 
	C154.792343,68.653290 154.348480,68.548080 153.904633,68.442871 
	C151.111526,70.628387 148.318420,72.813904 145.420395,75.081512 
	C146.436508,76.743652 147.472565,78.438431 148.238129,80.840408 
	C146.963928,81.371689 145.732849,82.109566 144.405579,82.386467 
	C142.347610,82.815796 140.158920,82.710228 138.163803,83.299324 
	C137.469452,83.504341 137.184937,85.097366 136.713242,86.056480 
	C137.674362,86.383125 138.640732,86.992874 139.595490,86.975212 
	C141.372269,86.942345 143.142303,86.544044 145.273849,86.248055 
	C143.147583,96.139626 139.645218,103.765831 129.398422,105.233025 
	C127.518677,105.502182 125.406807,104.150192 123.402084,103.546509 
	C125.929626,101.909447 128.220764,101.742149 130.006866,100.705070 
	C132.873383,99.040665 135.181900,96.473755 133.107376,92.914116 
	C131.034134,89.356682 127.504143,90.052475 124.843826,91.820198 
	C122.780403,93.191315 121.074280,95.585144 120.016914,97.894180 
	C116.875145,104.755043 111.311653,106.859459 104.345222,103.197960 
	C109.051865,102.760605 113.879410,102.479652 115.068886,96.926338 
	C115.354713,95.591873 114.172279,93.032349 112.975403,92.447388 
	C107.591858,89.816238 103.977867,93.204262 100.045494,97.870903 
	C97.983566,94.554787 96.264343,91.682510 94.421875,88.891594 
	C93.863594,88.045906 92.964409,87.425278 92.221375,86.701561 
	C91.623505,87.699791 90.793816,88.634926 90.499657,89.715813 
	C90.255455,90.613121 90.834427,91.705498 90.716675,92.670959 
	C90.050598,98.132378 89.643768,103.759659 83.407890,107.518921 
	C83.407890,104.628929 83.474365,102.563293 83.385574,100.504356 
	C83.321556,99.019989 83.050819,97.544525 82.872276,96.065086 
	C81.612656,97.051720 80.228523,97.917892 79.126541,99.057022 
	C77.890244,100.334999 76.909019,101.859741 75.816818,103.277130 
	C75.065353,100.875282 75.248795,99.076897 75.483963,97.285301 
	C75.722435,95.468529 76.012009,93.658463 76.337822,91.447655 
	C71.835434,93.085526 69.275345,100.779068 71.311569,105.076065 
	C72.964737,108.564690 75.670113,108.593269 77.743980,107.094376 
	C80.377441,108.586685 82.690369,111.053719 84.616898,110.781914 
	C91.652481,109.789322 92.291573,103.122368 94.933006,96.672607 
	C96.963684,99.658066 98.094215,102.494980 100.174660,104.102547 
	C103.270836,106.494957 106.898201,109.095528 110.564018,109.571831 
	C113.498314,109.953094 116.826401,107.303688 120.058495,105.966743 
	C126.417709,111.404305 131.531906,110.936142 142.354233,103.691589 
	C144.832214,110.072861 149.958725,110.724098 155.891907,110.709999 
	C157.076996,111.418365 158.262070,112.126732 159.447159,112.835098 
	C159.946121,110.849457 160.445099,108.863815 161.250076,106.286270 
	C163.067932,104.579453 165.042145,103.003036 166.627609,101.102364 
	C167.272263,100.329536 167.071884,98.851807 167.255997,97.694817 
	C166.037613,97.978935 164.598099,97.943619 163.641479,98.605850 
	C160.522873,100.764755 157.853668,103.743233 154.506378,105.361404 
	C149.497345,107.782928 145.290359,104.380417 146.227310,98.893570 
	C146.859116,95.193779 148.223892,91.619156 149.149673,88.377571 
	C152.509262,87.783287 155.334778,87.529007 157.974762,86.690590 
	C158.972565,86.373703 159.541824,84.707466 160.306427,83.656319 
	C159.190796,83.378647 158.058563,82.823624 156.963501,82.889236 
	C155.377533,82.984283 153.818481,83.528275 151.932037,83.951653 
	C152.630142,81.527344 153.202789,79.538658 154.060364,76.852814 
M146.559753,122.370277 
	C144.698822,118.602249 141.404037,118.993324 138.498764,120.240753 
	C137.503906,120.667908 137.134048,123.304108 137.068909,124.954361 
	C136.985657,127.062943 137.616623,129.189102 137.726440,131.318680 
	C137.855789,133.827423 137.756760,136.347946 137.756760,138.863358 
	C138.239319,138.901947 138.721863,138.940536 139.204422,138.979126 
	C139.681854,137.696884 140.159286,136.414658 140.664688,135.057266 
	C142.047577,136.546448 143.288177,137.882416 144.528793,139.218384 
	C144.964218,138.903076 145.399658,138.587753 145.835083,138.272446 
	C144.609451,136.184891 143.383820,134.097351 142.091446,131.896118 
	C146.235184,130.204208 147.741974,127.254959 146.559753,122.370277 
M119.809097,128.662506 
	C119.724442,128.951172 119.723480,129.348923 119.530785,129.496796 
	C119.350388,129.635239 118.781891,129.619781 118.699844,129.482880 
	C116.847572,126.392220 115.038857,123.275475 113.221939,120.163635 
	C112.690552,120.350609 112.159164,120.537582 111.627777,120.724548 
	C111.627777,126.697495 111.627777,132.670441 111.627777,138.643372 
	C112.034653,138.683594 112.441536,138.723801 112.848412,138.764023 
	C113.203514,134.949692 113.558617,131.135361 114.049408,125.863480 
	C116.441704,130.947678 118.188789,134.660660 119.935875,138.373642 
	C120.449211,138.274582 120.962555,138.175522 121.475891,138.076462 
	C121.475891,132.089325 121.475891,126.102203 121.475891,120.115074 
	C121.109459,120.069008 120.743019,120.022942 120.376587,119.976875 
	C120.189323,122.600502 120.002060,125.224129 119.809097,128.662506 
M82.842453,136.712540 
	C87.238121,140.289627 91.351006,139.667252 92.767792,134.518784 
	C93.673157,131.228775 93.344551,127.304039 92.476425,123.946411 
	C92.046165,122.282326 89.170158,120.259262 87.363129,120.222061 
	C85.565910,120.185074 82.377647,122.233208 82.156555,123.718002 
	C81.555588,127.753952 82.202065,131.975647 82.842453,136.712540 
M98.021202,137.665375 
	C99.970398,138.429886 99.970398,138.429886 101.239571,135.274384 
	C102.489983,136.618286 103.740387,137.962189 104.990791,139.306091 
	C105.368462,139.058304 105.746124,138.810501 106.123787,138.562698 
	C105.654305,137.504700 105.264557,136.401230 104.693954,135.400909 
	C104.064957,134.298218 103.269936,133.290253 102.550163,132.245300 
	C107.255951,128.991501 108.788826,125.106743 106.630020,121.805634 
	C104.253105,118.171013 101.161674,119.254814 97.978783,120.658615 
	C97.978783,126.194534 97.978783,131.498718 98.021202,137.665375 
M75.289322,138.895645 
	C75.901695,137.728729 76.514069,136.561798 76.689171,136.228134 
	C73.787727,136.228134 70.408981,137.234619 69.174370,136.034790 
	C65.801178,132.756638 66.802757,128.503571 68.743942,124.539993 
	C70.693443,120.559425 73.581253,121.365807 76.825378,123.515930 
	C75.590782,118.653870 72.233894,117.552155 68.889435,120.493996 
	C65.034782,123.884628 64.364220,128.452423 64.985542,133.237732 
	C65.670166,138.510605 68.984749,140.497635 75.289322,138.895645 
M152.848038,132.460480 
	C155.540741,132.370132 158.339020,131.770691 160.902725,132.302353 
	C165.340240,133.222610 167.154083,132.429825 167.343369,129.453445 
	C164.443298,129.171539 161.621185,129.074265 158.869263,128.583496 
	C155.651733,128.009735 152.950699,127.977654 152.848038,132.460480 
M45.964607,130.312241 
	C48.234600,130.317398 50.659088,129.811310 52.740551,130.440323 
	C56.415836,131.550964 58.416019,130.506195 59.754921,127.851067 
	C56.048992,127.411041 52.895145,126.771240 49.740051,126.765015 
	C47.949783,126.761475 46.157463,127.795944 44.366066,128.362930 
	C44.689957,129.155838 45.013847,129.948730 45.964607,130.312241 
M58.886082,64.415382 
	C57.772579,66.599930 56.881866,68.967476 60.155567,69.805771 
	C61.181644,70.068512 63.540333,68.817154 63.749966,67.905090 
	C64.454681,64.839096 62.516033,63.794395 58.886082,64.415382 
M38.952553,133.740112 
	C40.767380,131.414734 40.104332,129.683914 37.389790,129.189758 
	C36.423306,129.013824 34.399033,130.114548 34.222958,130.928024 
	C33.519878,134.176254 35.918339,134.118179 38.952553,133.740112 
M160.481827,149.728653 
	C159.936844,149.620789 159.391861,149.512924 158.846878,149.405075 
	C158.841019,149.795837 158.835159,150.186600 158.829300,150.577362 
	C159.377289,150.484467 159.925262,150.391586 160.481827,149.728653 
M67.086479,145.308807 
	C66.573082,145.492188 66.059685,145.675568 65.546288,145.858948 
	C65.665375,146.124542 65.784470,146.390137 65.903557,146.655731 
	C66.432022,146.345917 66.960480,146.036102 67.086479,145.308807 
z"/>
<path fill="#E382A2" opacity="1.000000" stroke="none" 
	d="
M192.953735,95.693062 
	C189.707825,93.978325 186.471848,91.888725 182.505692,89.327629 
	C183.883209,77.183151 175.973145,69.349579 165.405548,62.931610 
	C164.992889,62.975964 165.119675,62.896046 165.119675,62.896046 
	C155.386047,56.572647 145.146790,56.853924 134.672623,60.628208 
	C132.977081,61.239185 131.383072,62.131920 129.387512,62.958710 
	C131.393005,61.026604 133.609909,57.556774 136.140121,57.310898 
	C143.642151,56.581867 151.307388,56.679871 158.828506,57.352608 
	C162.697647,57.698689 165.940491,58.648849 168.212479,54.475098 
	C168.631577,53.705196 170.044922,53.476521 171.769440,52.611977 
	C171.524033,54.509602 171.524963,55.598797 171.227905,56.599537 
	C170.228806,59.965336 170.523392,61.855488 173.827118,64.742065 
	C177.344467,67.815308 181.038330,71.810974 182.503723,77.313309 
	C183.943481,82.719360 184.314285,89.433731 191.234100,91.986832 
	C192.102158,92.307106 192.401047,94.170036 192.953735,95.693062 
z"/>
<path fill="#F893B6" opacity="1.000000" stroke="none" 
	d="
M54.977547,27.121693 
	C55.239937,25.860188 55.065727,24.020142 55.839470,23.436232 
	C59.397694,20.750980 63.220543,18.416393 66.948456,15.956000 
	C67.329773,16.282267 67.711082,16.608532 68.092392,16.934799 
	C67.041275,18.983603 65.990150,21.032406 64.906998,23.143646 
	C63.927540,22.747711 63.096176,22.411642 61.650524,21.827251 
	C63.280224,28.207521 58.082527,28.803020 54.332371,30.821228 
	C53.916103,30.075535 53.957829,29.519920 54.230255,28.810287 
	C54.633156,28.144743 54.805351,27.633219 54.977547,27.121693 
z"/>
<path fill="#F083A8" opacity="1.000000" stroke="none" 
	d="
M211.635757,15.009425 
	C211.550461,16.990383 211.094452,18.981831 210.491241,21.616131 
	C210.363998,21.561609 211.448624,22.026363 212.765137,22.743660 
	C210.879486,24.950274 208.761948,26.904343 206.338593,28.601059 
	C206.617493,25.122398 204.811432,24.130663 202.028519,24.049917 
	C201.822113,21.679630 202.333115,20.431799 205.192947,19.733801 
	C207.465134,19.179234 209.258881,16.664419 211.635757,15.009425 
z"/>
<path fill="#E78DAB" opacity="1.000000" stroke="none" 
	d="
M93.003258,37.989029 
	C94.207825,37.224300 95.187553,36.735329 96.308083,36.176079 
	C96.496864,40.711170 87.895477,47.844795 80.791191,49.447014 
	C81.511307,45.985367 83.342735,44.276932 93.003258,37.989029 
z"/>
<path fill="#F176A0" opacity="1.000000" stroke="none" 
	d="
M203.996948,30.998608 
	C202.497833,33.573902 200.998718,36.149193 199.499603,38.724487 
	C193.380692,42.436733 190.679062,41.828941 189.318985,36.544128 
	C194.474014,40.497429 194.926178,34.940971 197.366089,32.939251 
	C199.820709,32.271515 201.908829,31.635061 203.996948,30.998608 
z"/>
<path fill="#FB95B9" opacity="1.000000" stroke="none" 
	d="
M204.041534,30.683119 
	C201.908829,31.635061 199.820709,32.271515 197.315582,32.633614 
	C195.600983,31.576214 194.303391,30.793161 193.005814,30.010111 
	C193.005814,30.010113 193.000000,29.999695 193.334015,30.000677 
	C194.423233,29.310617 195.178421,28.619577 195.933624,27.928539 
	C197.813751,26.798685 199.693878,25.668829 201.801270,24.294445 
	C204.811432,24.130663 206.617493,25.122398 205.996796,28.650570 
	C205.335922,29.427498 204.711014,29.897564 204.041534,30.683119 
z"/>
<path fill="#DC84A2" opacity="1.000000" stroke="none" 
	d="
M31.742447,73.026321 
	C27.527800,78.438103 25.391869,84.875336 23.915464,91.688927 
	C23.593102,93.176620 21.762552,94.337524 20.311543,95.482452 
	C19.990583,94.873695 19.984674,94.431427 19.978765,93.989151 
	C20.994427,91.126907 22.221426,88.319336 22.979189,85.390373 
	C24.316355,80.221863 26.446651,75.706787 31.742447,73.026321 
z"/>
<path fill="#F375A0" opacity="1.000000" stroke="none" 
	d="
M180.999115,41.997917 
	C180.685028,39.602856 180.124435,37.201645 180.183899,34.815895 
	C180.206207,33.920712 181.669479,33.061455 182.475815,32.185822 
	C183.293167,33.046753 184.674072,33.823910 184.816971,34.785095 
	C185.174393,37.189655 184.970322,39.677673 184.639114,42.567131 
	C183.190826,42.667347 182.094971,42.332634 180.999115,41.997917 
z"/>
<path fill="#FB96B9" opacity="1.000000" stroke="none" 
	d="
M53.999550,28.964306 
	C53.957829,29.519920 53.916103,30.075535 53.972351,30.860676 
	C52.944355,32.028706 51.818386,32.967209 50.296860,33.815521 
	C49.815372,33.682667 49.729446,33.639999 49.643520,33.597332 
	C49.757500,33.735397 49.871479,33.873459 49.985458,34.011524 
	C49.456043,35.173019 48.926628,36.334515 47.890095,37.729630 
	C46.590942,37.633850 45.798904,37.304455 45.006870,36.975060 
	C44.888626,36.666592 44.695946,36.415169 44.218586,35.781200 
	C44.016747,34.902622 44.025158,34.463631 44.033569,34.024643 
	C44.033569,34.024643 44.003475,33.997078 44.300331,34.050148 
	C45.780872,34.623798 47.439846,36.120678 46.853233,33.004906 
	C48.663719,31.014936 50.474205,29.024965 52.753490,27.272192 
	C53.481377,27.994362 53.740463,28.479334 53.999550,28.964306 
z"/>
<path fill="#F794B6" opacity="1.000000" stroke="none" 
	d="
M199.195190,115.104111 
	C199.185715,114.599358 199.176239,114.094597 199.440338,113.002945 
	C200.817719,110.953331 201.921509,109.490616 203.025299,108.027908 
	C204.123367,107.380486 205.221436,106.733047 206.646912,106.056213 
	C207.130432,107.192909 207.286530,108.359024 207.697571,109.769485 
	C206.525650,111.346344 205.114044,112.695732 203.666138,114.004959 
	C202.814240,114.775276 201.904724,115.481857 200.773132,116.454491 
	C200.081833,116.162621 199.638504,115.633362 199.195190,115.104111 
z"/>
<path fill="#F88EB3" opacity="1.000000" stroke="none" 
	d="
M192.740875,30.135075 
	C194.303391,30.793161 195.600983,31.576214 196.949066,32.664902 
	C194.926178,34.940971 194.474014,40.497429 189.310791,36.149109 
	C189.011002,35.554016 189.016434,35.118454 189.341980,34.301559 
	C190.093994,33.280872 190.525879,32.641521 190.957764,32.002167 
	C191.463821,31.421461 191.969879,30.840752 192.740875,30.135075 
z"/>
<path fill="#D7658C" opacity="1.000000" stroke="none" 
	d="
M180.716125,42.047707 
	C182.094971,42.332634 183.190826,42.667347 184.633575,43.021759 
	C184.654419,44.911411 184.448929,46.822689 183.841187,48.596115 
	C183.769684,48.804787 180.466400,48.421768 180.402725,48.030025 
	C180.089874,46.105003 180.365387,44.084366 180.716125,42.047707 
z"/>
<path fill="#D56289" opacity="1.000000" stroke="none" 
	d="
M156.405823,26.775772 
	C155.999786,24.964813 155.776550,23.171053 156.035065,21.449644 
	C156.071793,21.205009 159.081070,20.764946 159.606796,21.373041 
	C160.612625,22.536440 160.821777,24.388601 161.300186,25.776867 
	C159.304047,26.232018 158.023285,26.524050 156.405823,26.775772 
z"/>
<path fill="#D7638A" opacity="1.000000" stroke="none" 
	d="
M12.151765,22.535534 
	C13.434177,22.371252 14.644163,22.528566 15.854150,22.685881 
	C15.211654,24.104942 14.833291,26.519464 13.881289,26.772068 
	C9.584542,27.912159 9.914063,24.453762 10.040806,21.516703 
	C10.507388,22.301790 10.970597,23.088976 11.452881,23.864296 
	C11.472184,23.895330 11.747103,23.845716 11.775467,23.779268 
	C11.902067,23.482695 11.982334,23.166340 12.151765,22.535534 
z"/>
<path fill="#FB8EB4" opacity="1.000000" stroke="none" 
	d="
M74.100815,15.825546 
	C72.841835,16.769209 71.854248,17.531807 69.718201,19.181217 
	C70.072212,15.867760 70.340950,13.352399 70.648842,10.470633 
	C74.501968,11.189142 77.437180,11.543312 74.100815,15.825546 
z"/>
<path fill="#E47DA0" opacity="1.000000" stroke="none" 
	d="
M202.696411,107.983414 
	C201.921509,109.490616 200.817719,110.953331 199.495850,112.627098 
	C198.373871,108.928078 197.470001,105.017998 196.606354,100.731430 
	C197.864990,101.946892 199.089478,103.534241 200.299484,105.132538 
	C201.000824,106.058907 201.678940,107.002876 202.696411,107.983414 
z"/>
<path fill="#DC84A2" opacity="1.000000" stroke="none" 
	d="
M72.920448,62.136806 
	C70.968559,62.043945 68.927193,61.630440 66.273666,60.829315 
	C64.458153,60.379055 63.254803,60.316406 62.051453,60.253761 
	C60.646942,60.208385 59.242435,60.163013 57.419315,60.059196 
	C62.515537,58.529858 67.963860,57.638939 72.920448,62.136806 
z"/>
<path fill="#DC84A2" opacity="1.000000" stroke="none" 
	d="
M54.783394,60.917702 
	C51.121017,61.939564 47.458641,62.961433 43.429478,64.042763 
	C45.732960,59.712448 49.627705,58.384575 54.716492,60.016640 
	C54.923599,60.508678 54.783394,60.917702 54.783394,60.917702 
z"/>
<path fill="#DC84A2" opacity="1.000000" stroke="none" 
	d="
M80.871185,64.869537 
	C79.097832,64.492233 77.376503,63.786919 75.367188,62.874779 
	C77.450897,61.970943 79.689735,61.688320 80.871185,64.869537 
z"/>
<path fill="#EE749D" opacity="1.000000" stroke="none" 
	d="
M45.011948,37.332340 
	C45.798904,37.304455 46.590942,37.633850 47.703892,38.009224 
	C48.139046,38.354286 48.326183,38.597214 48.793114,38.891994 
	C49.000000,39.000000 49.000153,39.000153 49.000153,39.000153 
	C46.509792,42.096977 45.754711,39.919727 45.011948,37.332340 
z"/>
<path fill="#DC84A2" opacity="1.000000" stroke="none" 
	d="
M36.702442,68.043915 
	C35.926514,69.304771 34.766541,70.552223 33.311821,71.952888 
	C34.117519,70.747574 35.217957,69.389046 36.702442,68.043915 
z"/>
<path fill="#DC84A2" opacity="1.000000" stroke="none" 
	d="
M40.696445,65.029350 
	C39.946621,66.026535 38.825008,67.008232 37.378464,68.039589 
	C38.143909,67.064117 39.234283,66.038994 40.696445,65.029350 
z"/>
<path fill="#DC84A2" opacity="1.000000" stroke="none" 
	d="
M88.678070,68.622009 
	C87.396042,68.769379 85.841881,68.679451 84.153885,68.281937 
	C85.482010,68.111130 86.943977,68.247917 88.678070,68.622009 
z"/>
<path fill="#E47DA0" opacity="1.000000" stroke="none" 
	d="
M196.738739,99.893845 
	C195.790833,99.414703 194.951355,98.549248 194.009918,97.376442 
	C194.887695,97.881905 195.867447,98.694710 196.738739,99.893845 
z"/>
<path fill="#F88EB3" opacity="1.000000" stroke="none" 
	d="
M195.590729,27.957176 
	C195.178421,28.619577 194.423233,29.310617 193.339706,30.003506 
	C193.756866,29.332172 194.502350,28.658995 195.590729,27.957176 
z"/>
<path fill="#F375A0" opacity="1.000000" stroke="none" 
	d="
M190.638611,32.006424 
	C190.525879,32.641521 190.093994,33.280872 189.350250,33.974861 
	C189.465393,33.356560 189.892410,32.683620 190.638611,32.006424 
z"/>
<path fill="#EA779E" opacity="1.000000" stroke="none" 
	d="
M19.695286,94.145767 
	C19.984674,94.431427 19.990583,94.873695 20.001169,95.647324 
	C19.554514,96.324562 19.103184,96.670441 18.354084,97.046524 
	C18.508142,96.151947 18.959974,95.227165 19.695286,94.145767 
z"/>
<path fill="#EE749D" opacity="1.000000" stroke="none" 
	d="
M46.533794,33.007809 
	C47.439846,36.120678 45.780872,34.623798 44.308311,34.068451 
	C44.751072,33.692696 45.482716,33.351704 46.533794,33.007809 
z"/>
<path fill="#FE97BC" opacity="1.000000" stroke="none" 
	d="
M54.230255,28.810287 
	C53.740463,28.479334 53.481377,27.994362 53.113098,27.256290 
	C53.444599,27.004742 53.885292,27.006290 54.651764,27.064766 
	C54.805351,27.633219 54.633156,28.144743 54.230255,28.810287 
z"/>
<path fill="#EE749D" opacity="1.000000" stroke="none" 
	d="
M43.786259,34.128273 
	C44.025158,34.463631 44.016747,34.902622 44.005081,35.671066 
	C43.599945,35.863098 43.198055,35.725670 42.796169,35.588242 
	C43.043762,35.136131 43.291359,34.684017 43.786259,34.128273 
z"/>
<path fill="#DC84A2" opacity="1.000000" stroke="none" 
	d="
M42.772667,64.066147 
	C42.592728,64.375343 42.102688,64.686310 41.313820,65.035843 
	C41.497517,64.738907 41.980042,64.403412 42.772667,64.066147 
z"/>
<path fill="#DC84A2" opacity="1.000000" stroke="none" 
	d="
M83.783249,67.230614 
	C83.311623,67.284935 82.740349,67.002594 82.012436,66.441475 
	C82.465073,66.406441 83.074326,66.650200 83.783249,67.230614 
z"/>
<path fill="#FFE6F3" opacity="1.000000" stroke="none" 
	d="
M55.000793,60.898102 
	C54.783394,60.917702 54.923599,60.508678 54.974972,60.299004 
	C55.026344,60.089325 55.498749,60.201347 55.716698,60.308365 
	C55.745842,60.647041 55.507023,60.801414 55.000793,60.898102 
z"/>
<path fill="#DC84A2" opacity="1.000000" stroke="none" 
	d="
M81.800865,65.916237 
	C81.581650,65.987206 81.282906,65.805672 80.923462,65.358017 
	C81.148949,65.282509 81.435143,65.473122 81.800865,65.916237 
z"/>
<path fill="#E47DA0" opacity="1.000000" stroke="none" 
	d="
M193.858917,96.853149 
	C193.679764,96.899292 193.396362,96.711128 193.024048,96.276367 
	C193.208313,96.226112 193.481506,96.422478 193.858917,96.853149 
z"/>
<path fill="#EE749D" opacity="1.000000" stroke="none" 
	d="
M48.999924,38.999924 
	C49.081318,38.965790 49.162785,38.931732 49.122204,38.948914 
	C49.000153,39.000153 49.000000,39.000000 48.999924,38.999924 
z"/>
<path fill="#EE78A0" opacity="1.000000" stroke="none" 
	d="
M65.994118,196.009155 
	C66.198753,198.870361 65.893127,200.453690 62.131546,201.334137 
	C58.347397,202.219864 55.292633,205.861649 51.619911,207.699554 
	C48.769825,209.125778 45.460594,209.634460 42.355450,210.550980 
	C41.931828,209.890823 41.508205,209.230682 41.084583,208.570526 
	C42.663338,206.494263 43.828304,203.407715 45.908489,202.555695 
	C50.019032,200.872101 50.671520,198.483887 49.098881,194.358612 
	C54.141323,193.640167 57.905632,191.524063 59.802074,186.715179 
	C60.072552,186.029327 62.713501,185.579041 63.805706,186.055359 
	C66.458923,187.212418 67.868629,186.796692 69.534386,184.315720 
	C70.510735,182.861542 72.904663,181.743454 74.698532,181.687866 
	C75.751808,181.655228 77.864388,184.109268 77.741119,185.255585 
	C77.557396,186.964005 76.145920,188.966187 74.668442,190.012543 
	C72.296127,191.692657 69.442764,192.693558 66.205933,193.725693 
	C62.656033,191.026947 60.629910,192.976822 59.022884,195.176941 
	C58.397186,196.033554 58.753799,197.607681 58.662971,198.854980 
	C59.089970,199.018631 59.516964,199.182281 59.943962,199.345932 
	C60.939819,195.969925 61.389507,191.382782 65.994118,196.009155 
M74.558617,186.677185 
	C74.485741,185.714340 74.412865,184.751495 74.339989,183.788635 
	C73.877579,183.890076 73.415176,183.991516 72.952766,184.092957 
	C73.341667,185.096008 73.730560,186.099060 74.558617,186.677185 
z"/>
<path fill="#E77FA2" opacity="1.000000" stroke="none" 
	d="
M89.193314,157.202744 
	C98.977776,161.014206 108.325249,159.830612 117.350655,154.134293 
	C118.387100,153.480148 120.722321,153.613556 121.716713,154.362503 
	C130.261627,160.798279 139.729813,162.821701 150.935898,160.850357 
	C154.820328,159.497528 157.918137,158.251770 161.015945,157.006012 
	C162.812790,155.792511 164.609650,154.578995 166.707581,153.254150 
	C165.150848,155.201599 163.651184,157.884186 161.364960,159.196838 
	C155.572586,162.522614 149.427246,165.233643 142.814667,168.490616 
	C141.105972,166.961761 139.202316,164.434357 136.668625,163.197266 
	C133.402710,161.602646 129.632675,161.040024 126.078178,160.038605 
	C125.920776,159.994278 125.679817,160.072495 125.591393,159.982285 
	C119.493286,153.760590 113.577469,159.670258 107.604385,160.289276 
	C101.247253,160.948120 94.756775,162.908752 89.193314,157.202744 
z"/>
<path fill="#E77FA2" opacity="1.000000" stroke="none" 
	d="
M40.080345,153.276337 
	C43.710251,154.308929 47.381477,155.688034 51.709938,157.330200 
	C54.879192,157.917892 57.391209,158.242508 59.903221,158.567123 
	C63.011051,158.349838 66.118881,158.132538 69.876900,157.796295 
	C70.837257,157.565002 71.075508,157.366318 71.241821,157.081314 
	C72.624176,156.713928 74.006538,156.346542 75.942917,155.814346 
	C76.780190,155.523407 76.988556,155.320389 77.122055,155.040482 
	C77.122055,155.040482 77.600159,154.977386 78.057358,154.846222 
	C78.825829,154.585541 79.050079,154.366776 79.187317,154.058746 
	C83.307816,150.896042 86.132584,153.197128 88.934174,156.615829 
	C83.602112,153.918228 79.054619,157.262039 74.045670,158.785019 
	C70.060211,159.996796 65.576767,159.477478 61.368717,160.096146 
	C59.678566,160.344620 57.382214,161.155273 56.654301,162.441528 
	C53.710186,167.643890 47.652920,165.499985 43.700661,169.085114 
	C42.424671,164.237213 42.041264,160.619308 48.852718,160.476868 
	C45.500271,157.845154 42.810970,155.734024 40.080345,153.276337 
z"/>
<path fill="#C4688C" opacity="1.000000" stroke="none" 
	d="
M87.029015,219.056641 
	C85.298874,218.995514 83.568726,218.934387 80.948257,218.893188 
	C70.376358,218.963348 60.694798,219.013580 51.013237,219.063812 
	C50.566338,219.021072 50.119442,218.978333 49.086380,218.940338 
	C48.333073,218.985306 48.165928,219.025528 47.998787,219.065765 
	C41.160583,219.311829 34.321777,219.757614 27.484381,219.736954 
	C22.550089,219.722061 17.617668,219.086639 12.312876,218.576111 
	C16.770706,217.981110 21.596872,217.201599 26.430019,217.155624 
	C43.535343,216.992828 60.643578,217.140045 77.749092,216.987869 
	C79.583717,216.971558 81.407753,215.765472 83.767174,215.275482 
	C84.859619,215.281113 85.421600,215.122543 85.983574,214.963989 
	C86.549431,215.147980 87.115280,215.331970 87.992104,216.048004 
	C89.210297,216.994125 90.117516,217.408188 91.024742,217.822250 
	C91.024742,217.822250 91.090889,218.170197 90.680542,218.471954 
	C89.189804,218.868042 88.109413,218.962341 87.029015,219.056641 
z"/>
<path fill="#E77FA2" opacity="1.000000" stroke="none" 
	d="
M180.056305,141.143066 
	C186.326630,139.466080 190.960312,135.735458 194.343475,129.496124 
	C195.369125,127.919884 196.063919,126.868095 196.830978,125.873207 
	C196.903259,125.930107 197.045731,126.046478 197.035736,126.457809 
	C196.010468,130.242371 194.995178,133.615585 193.979904,136.988815 
	C192.035034,137.781204 190.063766,138.515091 188.150726,139.378052 
	C184.043411,141.230774 179.966141,143.150085 175.445282,145.027176 
	C175.013977,145.012222 174.938904,144.938156 175.090027,144.639221 
	C176.846191,143.274551 178.451248,142.208817 180.056305,141.143066 
z"/>
<path fill="#EB759D" opacity="1.000000" stroke="none" 
	d="
M141.940048,213.068497 
	C141.940048,213.068497 141.579605,213.079544 140.998001,213.043701 
	C139.622009,212.994217 138.827606,212.980591 138.012482,212.673737 
	C137.550827,211.815613 137.109894,211.250717 136.668976,210.685806 
	C136.473511,210.874588 136.278046,211.063354 136.082596,211.252121 
	C136.712555,211.841675 137.342514,212.431213 137.781754,213.249756 
	C135.736374,213.992889 133.881729,214.507034 132.019684,215.015442 
	C132.012314,215.009689 131.997559,214.997559 131.997559,214.997559 
	C132.884247,210.078186 137.863144,204.282730 142.644638,203.431976 
	C142.649567,206.916824 142.294800,209.992661 141.940048,213.068497 
z"/>
<path fill="#DC88A4" opacity="1.000000" stroke="none" 
	d="
M16.080650,120.266769 
	C20.867399,123.470375 23.927279,128.101303 25.573351,133.885361 
	C26.412607,136.834396 28.233227,139.504150 29.603168,142.638000 
	C27.645487,140.342957 25.559929,137.797760 23.777594,135.055496 
	C21.414421,131.419556 19.241930,127.656006 17.091923,123.887703 
	C16.541897,122.923668 16.384920,121.735390 16.080650,120.266769 
z"/>
<path fill="#F6739F" opacity="1.000000" stroke="none" 
	d="
M194.339615,136.948212 
	C194.995178,133.615585 196.010468,130.242371 197.381989,126.433456 
	C198.823822,124.998207 199.909424,123.998634 200.995026,122.999069 
	C201.634186,124.109901 203.063858,125.914108 202.791107,126.225052 
	C199.832336,129.598297 200.267944,135.580673 194.339615,136.948212 
z"/>
<path fill="#FB8CB2" opacity="1.000000" stroke="none" 
	d="
M142.192535,213.081879 
	C142.294800,209.992661 142.649567,206.916824 143.028625,203.430740 
	C144.183548,202.486862 145.314163,201.953247 146.712952,201.607422 
	C146.971863,204.856613 146.962555,207.917999 146.953247,210.979385 
	C145.671677,211.460327 144.390091,211.941269 143.027679,212.789856 
	C142.779541,213.136734 142.612274,213.115982 142.192535,213.081879 
z"/>
<path fill="#EE749D" opacity="1.000000" stroke="none" 
	d="
M147.380188,210.986389 
	C146.962555,207.917999 146.971863,204.856613 146.975281,201.403671 
	C152.138580,202.085205 151.981216,206.361298 153.486160,210.650833 
	C150.963181,210.803009 149.385147,210.898193 147.380188,210.986389 
z"/>
<path fill="#281F2A" opacity="1.000000" stroke="none" 
	d="
M87.339851,219.327606 
	C88.109413,218.962341 89.189804,218.868042 90.658279,218.647644 
	C103.403824,218.559753 115.761299,218.597931 128.823181,218.633865 
	C129.676941,218.720123 129.826324,218.808640 129.975693,218.897171 
	C129.265228,219.254654 128.553329,219.926300 127.844490,219.923096 
	C114.446335,219.862564 101.048553,219.722260 87.339851,219.327606 
z"/>
<path fill="#DC6A91" opacity="1.000000" stroke="none" 
	d="
M203.002838,152.150879 
	C202.944382,148.433319 205.341751,149.265137 206.634796,150.123520 
	C207.786285,150.887939 208.617508,152.686508 208.805359,154.130722 
	C208.907715,154.917526 207.378479,155.916565 206.585114,156.819885 
	C205.390442,155.394470 204.195786,153.969040 203.002838,152.150879 
z"/>
<path fill="#D8648B" opacity="1.000000" stroke="none" 
	d="
M160.998291,195.788300 
	C160.370270,197.572601 159.738235,198.966629 158.463058,201.779144 
	C156.653900,198.667282 155.465942,196.779404 154.527740,194.774628 
	C154.431747,194.569534 156.014420,193.050949 156.505157,193.196579 
	C158.080582,193.664032 159.509109,194.626495 160.998291,195.788300 
z"/>
<path fill="#DA628B" opacity="1.000000" stroke="none" 
	d="
M15.314135,193.618164 
	C15.216389,195.656616 14.987471,197.485657 14.301104,199.122940 
	C14.165102,199.447357 11.726957,199.440247 11.308271,198.875687 
	C10.527515,197.822906 9.802940,195.337631 10.197746,195.057175 
	C11.536607,194.106079 13.374949,193.858093 15.314135,193.618164 
z"/>
<path fill="#D7658C" opacity="1.000000" stroke="none" 
	d="
M37.074112,171.012802 
	C38.272915,172.465958 39.059437,173.918564 39.845963,175.371185 
	C37.942989,176.066116 36.040012,176.761047 34.137039,177.455963 
	C33.687229,176.880951 33.237423,176.305923 32.787613,175.730896 
	C34.079021,174.158020 35.370426,172.585144 37.074112,171.012802 
z"/>
<path fill="#D6638A" opacity="1.000000" stroke="none" 
	d="
M107.045609,195.206680 
	C108.570030,194.351379 110.140175,193.451309 111.535080,193.669830 
	C112.155472,193.767014 112.726402,196.125687 112.700233,197.445587 
	C112.689781,197.972687 110.606392,199.122040 110.163177,198.850616 
	C108.921173,198.090073 108.042198,196.736694 107.045609,195.206680 
z"/>
<path fill="#E77FA2" opacity="1.000000" stroke="none" 
	d="
M200.995621,122.599197 
	C199.909424,123.998634 198.823822,124.998207 197.391968,126.022125 
	C197.045731,126.046478 196.903259,125.930107 196.898254,125.491402 
	C197.026932,124.020897 197.160583,122.989105 197.294250,121.957306 
	C197.294250,121.957306 197.542603,121.611694 197.713470,121.172272 
	C197.974243,120.191277 198.064163,119.649712 198.154099,119.108139 
	C198.154099,119.108139 198.115936,119.040634 198.298065,118.969513 
	C198.704300,118.656456 198.781036,118.374451 198.710388,118.052361 
	C198.816620,117.312332 198.922852,116.572296 199.112122,115.468185 
	C199.638504,115.633362 200.081833,116.162621 200.744568,116.834305 
	C201.032578,117.504181 201.101166,118.031631 201.088379,118.779694 
	C201.003403,120.066650 200.999817,121.132988 200.995621,122.599197 
z"/>
<path fill="#FE97BC" opacity="1.000000" stroke="none" 
	d="
M65.995789,195.673248 
	C61.389507,191.382782 60.939819,195.969925 59.943962,199.345932 
	C59.516964,199.182281 59.089970,199.018631 58.662971,198.854980 
	C58.753799,197.607681 58.397186,196.033554 59.022884,195.176941 
	C60.629910,192.976822 62.656033,191.026947 65.834564,193.732407 
	C66.032440,194.442383 66.014946,194.889877 65.995789,195.673248 
z"/>
<path fill="#E77FA2" opacity="1.000000" stroke="none" 
	d="
M169.129120,151.795563 
	C169.544601,150.793137 170.327576,149.833954 171.421997,148.816406 
	C170.987823,149.784973 170.242218,150.811890 169.129120,151.795563 
z"/>
<path fill="#EB759D" opacity="1.000000" stroke="none" 
	d="
M129.096268,217.129532 
	C129.825302,216.425034 130.554337,215.720535 131.640472,215.006805 
	C131.997559,214.997559 132.012314,215.009689 131.961395,215.341217 
	C131.224747,216.119339 130.539017,216.565933 129.664276,217.043350 
	C129.475266,217.074173 129.096268,217.129532 129.096268,217.129532 
z"/>
<path fill="#EB759D" opacity="1.000000" stroke="none" 
	d="
M90.942352,217.507355 
	C90.117516,217.408188 89.210297,216.994125 88.179337,216.286163 
	C88.990395,216.392319 89.925186,216.792389 90.942352,217.507355 
z"/>
<path fill="#E77FA2" opacity="1.000000" stroke="none" 
	d="
M173.083191,147.760193 
	C172.785446,147.346008 172.847046,146.977386 173.228485,146.225677 
	C174.011856,145.541107 174.475372,145.239639 174.938904,144.938156 
	C174.938904,144.938156 175.013977,145.012222 175.052780,145.049408 
	C174.541916,145.992966 173.992233,146.899353 173.083191,147.760193 
z"/>
<path fill="#EB759D" opacity="1.000000" stroke="none" 
	d="
M85.832321,214.755936 
	C85.421600,215.122543 84.859619,215.281113 84.152771,215.212646 
	C84.565620,214.839722 85.123344,214.693802 85.832321,214.755936 
z"/>
<path fill="#E77FA2" opacity="1.000000" stroke="none" 
	d="
M37.176315,151.415527 
	C37.921257,151.571869 38.827656,151.996704 39.899162,152.689178 
	C39.155437,152.532547 38.246605,152.108276 37.176315,151.415527 
z"/>
<path fill="#DC88A4" opacity="1.000000" stroke="none" 
	d="
M13.786886,116.175415 
	C14.341627,116.473366 14.654451,116.941055 14.996772,117.700706 
	C14.576889,117.997963 14.127510,118.003250 13.341292,118.001442 
	C13.184626,117.444618 13.364798,116.894882 13.786886,116.175415 
z"/>
<path fill="#DC88A4" opacity="1.000000" stroke="none" 
	d="
M15.025063,118.281494 
	C15.366858,118.428383 15.726119,118.882950 16.114237,119.639275 
	C15.776238,119.490417 15.409383,119.039795 15.025063,118.281494 
z"/>
<path fill="#FA91B8" opacity="1.000000" stroke="none" 
	d="
M130.058640,218.733963 
	C129.826324,218.808640 129.676941,218.720123 129.284027,218.537689 
	C129.040482,218.443741 129.036087,218.479752 129.345428,218.435562 
	C129.850418,218.333786 130.046066,218.276184 130.241699,218.218567 
	C130.241699,218.218567 130.141586,218.570755 130.058640,218.733963 
z"/>
<path fill="#C4688C" opacity="1.000000" stroke="none" 
	d="
M130.206024,218.209656 
	C130.046066,218.276184 129.850418,218.333786 129.352051,218.434937 
	C129.048004,218.252884 129.046661,218.027237 129.070801,217.465576 
	C129.096268,217.129532 129.475266,217.074173 129.720856,217.353333 
	C130.014908,217.836792 130.063400,218.041092 130.111877,218.245407 
	C130.111877,218.245407 130.170334,218.200745 130.206024,218.209656 
z"/>
<path fill="#C4688C" opacity="1.000000" stroke="none" 
	d="
M10.806099,218.224075 
	C10.820547,218.422867 10.516928,218.558472 10.360649,218.504684 
	C10.400129,218.309021 10.595889,218.167145 10.806099,218.224075 
z"/>
<path fill="#E77FA2" opacity="1.000000" stroke="none" 
	d="
M172.072571,148.772919 
	C171.979858,148.536270 172.139221,148.226379 172.567444,147.869537 
	C172.665741,148.114960 172.495193,148.407333 172.072571,148.772919 
z"/>
<path fill="#E77FA2" opacity="1.000000" stroke="none" 
	d="
M167.847504,152.798340 
	C167.800842,152.557312 168.050354,152.256744 168.589813,151.894592 
	C168.634384,152.134949 168.389023,152.436874 167.847504,152.798340 
z"/>
<path fill="#EB759D" opacity="1.000000" stroke="none" 
	d="
M88.522736,213.537872 
	C88.479439,213.561478 88.566040,213.514282 88.522736,213.537872 
z"/>
<path fill="#281F2A" opacity="1.000000" stroke="none" 
	d="
M136.925552,218.426437 
	C147.513565,218.575775 158.101257,218.758423 168.689728,218.862778 
	C175.817719,218.933029 182.946793,218.892593 190.542053,218.963806 
	C189.938736,219.349869 188.869675,219.952545 187.798660,219.956024 
	C171.028351,220.010544 154.257782,219.992828 137.487320,219.963531 
	C136.849854,219.962418 136.212860,219.677231 135.490967,219.087585 
	C135.912720,218.575974 136.419128,218.501205 136.925552,218.426437 
z"/>
<path fill="#FA91B8" opacity="1.000000" stroke="none" 
	d="
M137.054276,218.079620 
	C136.419128,218.501205 135.912720,218.575974 135.193207,218.791718 
	C134.236572,218.878891 133.493011,218.825089 132.380585,218.887451 
	C132.011734,219.003601 132.038879,218.971725 132.038879,218.971725 
	C131.547012,218.816772 131.055130,218.661804 130.337570,218.376129 
	C130.063400,218.041092 130.014908,217.836792 129.909851,217.322510 
	C130.539017,216.565933 131.224747,216.119339 131.968781,215.346985 
	C133.881729,214.507034 135.736374,213.992889 137.797546,213.237091 
	C138.004059,212.995468 138.033218,212.966949 138.033218,212.966949 
	C138.827606,212.980591 139.622009,212.994217 140.819260,213.019989 
	C139.875748,214.598999 138.529373,216.165894 137.054276,218.079620 
M134.887070,216.325241 
	C134.967224,216.325180 135.047379,216.325119 134.887070,216.325241 
z"/>
<path fill="#261F2A" opacity="1.000000" stroke="none" 
	d="
M51.327156,219.333618 
	C60.694798,219.013580 70.376358,218.963348 80.521820,218.977219 
	C77.613899,219.360474 74.243881,219.921738 70.869865,219.946823 
	C64.461472,219.994492 58.050804,219.735214 51.327156,219.333618 
z"/>
<path fill="#A3ABB1" opacity="1.000000" stroke="none" 
	d="
M42.674255,224.863937 
	C42.712391,224.701660 42.750530,224.539368 43.253323,224.102844 
	C44.465382,223.476212 45.212788,223.123825 46.097908,222.613266 
	C46.440063,222.259766 46.671089,222.103775 47.172749,222.108780 
	C47.593155,222.274597 47.769501,222.318756 47.945847,222.362930 
	C47.992775,223.810974 48.356590,225.359406 47.944004,226.661880 
	C47.756519,227.253738 46.031685,227.358597 45.255524,227.265152 
	C45.090450,226.279999 44.674072,225.714081 43.860386,225.085144 
	C43.200138,224.969406 42.937199,224.916672 42.674255,224.863937 
z"/>
<path fill="#E8F2F5" opacity="1.000000" stroke="none" 
	d="
M26.112595,224.088135 
	C27.003370,224.177628 27.894146,224.267136 28.917511,224.975555 
	C28.925892,226.033798 28.801683,226.473145 28.537127,226.938004 
	C28.179688,227.005173 28.055500,227.135452 28.024216,227.354340 
	C27.612778,227.508652 27.201338,227.662964 26.397850,227.484467 
	C26.041401,226.130463 26.076998,225.109299 26.112595,224.088135 
z"/>
<path fill="#697276" opacity="1.000000" stroke="none" 
	d="
M25.765255,224.016296 
	C26.076998,225.109299 26.041401,226.130463 26.053919,227.532059 
	C21.591982,229.427612 26.045019,223.863861 23.115522,223.944489 
	C23.882986,223.944489 24.650452,223.944489 25.765255,224.016296 
z"/>
<path fill="#1B1F28" opacity="1.000000" stroke="none" 
	d="
M47.777790,222.045654 
	C47.769501,222.318756 47.593155,222.274597 46.959618,222.163574 
	C46.232281,222.249756 46.051537,222.474655 45.960197,222.771439 
	C45.212788,223.123825 44.465382,223.476212 43.349335,223.871948 
	C43.576870,221.182144 45.051987,220.309448 47.777790,222.045654 
z"/>
<path fill="#9DA4AD" opacity="1.000000" stroke="none" 
	d="
M42.529633,224.912476 
	C42.937199,224.916672 43.200138,224.969406 43.768608,225.378540 
	C44.147717,226.134796 44.221294,226.534668 44.294868,226.934525 
	C43.182980,227.192764 42.071091,227.451004 40.937130,227.086823 
	C40.915058,226.464386 41.088177,226.018723 41.088177,226.018723 
	C41.088177,226.018723 41.011242,226.011795 41.260502,225.942642 
	C41.701504,225.587814 41.893242,225.302139 42.084976,225.016449 
	C42.084972,225.016449 42.385010,224.961014 42.529633,224.912476 
z"/>
<path fill="#A3ABB1" opacity="1.000000" stroke="none" 
	d="
M17.854336,226.993591 
	C17.396482,227.249451 16.938627,227.505310 16.251904,227.492508 
	C15.982279,226.237305 15.941525,225.250763 15.900768,224.264221 
	C16.337648,224.190552 16.774529,224.116898 17.597313,224.402893 
	C17.940258,225.506210 17.897297,226.249908 17.854336,226.993591 
z"/>
<path fill="#DDDEDD" opacity="1.000000" stroke="none" 
	d="
M15.434076,224.148315 
	C15.941525,225.250763 15.982279,226.237305 15.999840,227.594482 
	C15.556580,227.053894 15.136512,226.142670 13.977446,225.146683 
	C12.937229,225.055359 12.636009,225.048798 12.334793,225.042236 
	C13.212325,224.705643 14.089854,224.369034 15.434076,224.148315 
z"/>
<path fill="#9DA4AD" opacity="1.000000" stroke="none" 
	d="
M12.200982,225.373581 
	C12.636009,225.048798 12.937229,225.055359 13.689890,225.084198 
	C13.669657,226.096390 13.197982,227.086304 12.726306,228.076233 
	C12.506596,227.285797 12.286884,226.495361 12.200982,225.373581 
z"/>
<path fill="#281F2A" opacity="1.000000" stroke="none" 
	d="
M194.233475,219.280945 
	C195.380997,218.997116 196.769791,218.964661 198.569992,219.004303 
	C197.479187,219.228348 195.976959,219.380325 194.233475,219.280945 
z"/>
<path fill="#0E0E0E" opacity="1.000000" stroke="none" 
	d="
M44.469269,226.939484 
	C44.221294,226.534668 44.147717,226.134796 44.165916,225.441544 
	C44.674072,225.714081 45.090450,226.279999 45.247925,226.920166 
	C44.989017,226.994415 44.643673,226.944458 44.469269,226.939484 
z"/>
<path fill="#BEC6CB" opacity="1.000000" stroke="none" 
	d="
M30.098581,225.105972 
	C30.286617,226.083557 30.474653,227.061127 30.298691,227.668976 
	C29.989323,226.568146 30.043951,225.837067 30.098581,225.105972 
z"/>
<path fill="#697276" opacity="1.000000" stroke="none" 
	d="
M29.871113,225.038956 
	C30.043951,225.837067 29.989323,226.568146 29.944157,227.667786 
	C29.953621,228.036331 29.462652,227.998322 29.195831,227.706329 
	C28.845165,227.247055 28.761318,227.079758 28.677473,226.912476 
	C28.801683,226.473145 28.925892,226.033798 29.111134,225.257507 
	C29.172167,224.920547 29.643644,224.971939 29.871113,225.038956 
z"/>
<path fill="#171717" opacity="1.000000" stroke="none" 
	d="
M18.112341,226.811539 
	C17.897297,226.249908 17.940258,225.506210 17.932098,224.393555 
	C18.044100,224.892883 18.207224,225.761185 18.112341,226.811539 
z"/>
<path fill="#0E0E0E" opacity="1.000000" stroke="none" 
	d="
M41.834515,225.111206 
	C41.893242,225.302139 41.701504,225.587814 41.261108,225.981262 
	C41.202984,225.794678 41.393517,225.500320 41.834515,225.111206 
z"/>
<path fill="#0E0E0E" opacity="1.000000" stroke="none" 
	d="
M40.924759,226.080139 
	C41.088177,226.018723 40.915058,226.464386 40.832642,226.688812 
	C40.659595,226.721375 40.553894,226.534073 40.493080,226.333191 
	C40.482861,226.299484 40.667004,226.206940 40.924759,226.080139 
z"/>
<path fill="#BEC6CB" opacity="1.000000" stroke="none" 
	d="
M28.537127,226.938004 
	C28.761318,227.079758 28.845165,227.247055 28.949909,227.694260 
	C28.751907,227.964249 28.533009,227.954330 28.169163,227.649384 
	C28.055500,227.135452 28.179688,227.005173 28.537127,226.938004 
z"/>
<path fill="#9DA4AD" opacity="1.000000" stroke="none" 
	d="
M12.793174,222.831451 
	C12.575729,222.884796 12.484233,222.802811 12.392738,222.720825 
	C12.568201,222.712585 12.743662,222.704346 12.793174,222.831451 
z"/>
<path fill="#281F2A" opacity="1.000000" stroke="none" 
	d="
M132.016464,218.986023 
	C131.948135,219.010620 131.875076,219.052795 131.920441,219.033356 
	C132.038879,218.971725 132.011734,219.003601 132.016464,218.986023 
z"/>
<path fill="#261F2A" opacity="1.000000" stroke="none" 
	d="
M48.097626,219.213318 
	C48.165928,219.025528 48.333073,218.985306 48.752869,218.997711 
	C48.735840,219.153854 48.466152,219.257370 48.097626,219.213318 
z"/>
<path fill="#0E0E0E" opacity="1.000000" stroke="none" 
	d="
M155.779297,109.795197 
	C149.958725,110.724098 144.832214,110.072861 142.354233,103.691589 
	C131.531906,110.936142 126.417709,111.404305 120.058495,105.966743 
	C116.826401,107.303688 113.498314,109.953094 110.564018,109.571831 
	C106.898201,109.095528 103.270836,106.494957 100.174660,104.102547 
	C98.094215,102.494980 96.963684,99.658066 94.933006,96.672607 
	C92.291573,103.122368 91.652481,109.789322 84.616898,110.781914 
	C82.690369,111.053719 80.377441,108.586685 77.743980,107.094376 
	C75.670113,108.593269 72.964737,108.564690 71.311569,105.076065 
	C69.275345,100.779068 71.835434,93.085526 76.337822,91.447655 
	C76.012009,93.658463 75.722435,95.468529 75.483963,97.285301 
	C75.248795,99.076897 75.065353,100.875282 75.816818,103.277130 
	C76.909019,101.859741 77.890244,100.334999 79.126541,99.057022 
	C80.228523,97.917892 81.612656,97.051720 82.872284,96.065094 
	C83.050819,97.544525 83.321556,99.019989 83.385574,100.504356 
	C83.474365,102.563293 83.407890,104.628929 83.407890,107.518921 
	C89.643768,103.759659 90.050598,98.132378 90.716675,92.670959 
	C90.834427,91.705498 90.255455,90.613121 90.499657,89.715813 
	C90.793816,88.634926 91.623505,87.699791 92.221375,86.701561 
	C92.964409,87.425278 93.863594,88.045906 94.421875,88.891594 
	C96.264343,91.682510 97.983566,94.554787 100.045494,97.870903 
	C103.977867,93.204262 107.591858,89.816238 112.975403,92.447388 
	C114.172279,93.032349 115.354713,95.591873 115.068886,96.926338 
	C113.879410,102.479652 109.051865,102.760605 104.345222,103.197960 
	C111.311653,106.859459 116.875145,104.755043 120.016914,97.894180 
	C121.074280,95.585144 122.780403,93.191315 124.843826,91.820198 
	C127.504143,90.052475 131.034134,89.356682 133.107376,92.914116 
	C135.181900,96.473755 132.873383,99.040665 130.006866,100.705070 
	C128.220764,101.742149 125.929626,101.909447 123.402084,103.546509 
	C125.406807,104.150192 127.518677,105.502182 129.398422,105.233025 
	C139.645218,103.765831 143.147583,96.139626 145.273849,86.248055 
	C143.142303,86.544044 141.372269,86.942345 139.595490,86.975212 
	C138.640732,86.992874 137.674362,86.383125 136.713242,86.056480 
	C137.184937,85.097366 137.469452,83.504341 138.163803,83.299324 
	C140.158920,82.710228 142.347610,82.815796 144.405579,82.386467 
	C145.732849,82.109566 146.963928,81.371689 148.570221,80.208450 
	C149.930328,77.466949 151.181198,75.893227 153.775452,77.549980 
	C153.202789,79.538658 152.630142,81.527344 151.932037,83.951653 
	C153.818481,83.528275 155.377533,82.984283 156.963501,82.889236 
	C158.058563,82.823624 159.190796,83.378647 160.306427,83.656319 
	C159.541824,84.707466 158.972565,86.373703 157.974762,86.690590 
	C155.334778,87.529007 152.509262,87.783287 149.149673,88.377571 
	C148.223892,91.619156 146.859116,95.193779 146.227310,98.893570 
	C145.290359,104.380417 149.497345,107.782928 154.506378,105.361404 
	C157.853668,103.743233 160.522873,100.764755 163.641479,98.605850 
	C164.598099,97.943619 166.037613,97.978935 167.255997,97.694809 
	C167.071884,98.851807 167.272263,100.329536 166.627609,101.102364 
	C165.042145,103.003036 163.067932,104.579453 160.788757,106.654800 
	C158.811386,107.947281 157.295334,108.871239 155.779297,109.795197 
z"/>
<path fill="#0F0F0F" opacity="1.000000" stroke="none" 
	d="
M57.638123,108.248276 
	C64.193115,103.093689 64.131584,97.883896 57.445591,91.945793 
	C49.629139,85.003700 50.324482,76.869400 59.020447,73.522766 
	C63.417179,71.830696 67.644875,73.185699 69.137573,76.945946 
	C69.480675,77.810265 69.081505,78.969238 69.023933,79.992615 
	C67.954689,79.705666 66.380394,79.767555 65.900848,79.073288 
	C63.403500,75.457703 60.822361,76.780495 58.331482,78.772499 
	C55.483444,81.050117 55.263527,83.773102 57.769913,86.495041 
	C58.886932,87.708115 60.207077,88.735336 61.445107,89.835571 
	C65.467766,93.410530 67.357323,97.727303 65.608215,103.643814 
	C63.165302,106.115669 61.209515,108.090508 59.268051,110.032349 
	C59.282372,109.999344 59.357380,110.080322 58.998974,109.848679 
	C58.306419,109.160789 57.972271,108.704529 57.638123,108.248276 
z"/>
<path fill="#131313" opacity="1.000000" stroke="none" 
	d="
M146.724945,122.729660 
	C147.741974,127.254959 146.235184,130.204208 142.091446,131.896118 
	C143.383820,134.097351 144.609451,136.184891 145.835083,138.272446 
	C145.399658,138.587753 144.964218,138.903076 144.528793,139.218384 
	C143.288177,137.882416 142.047577,136.546448 140.664688,135.057266 
	C140.159286,136.414658 139.681854,137.696884 139.204422,138.979126 
	C138.721863,138.940536 138.239319,138.901947 137.756760,138.863358 
	C137.756760,136.347946 137.855789,133.827423 137.726440,131.318680 
	C137.616623,129.189102 136.985657,127.062943 137.068909,124.954361 
	C137.134048,123.304108 137.503906,120.667908 138.498764,120.240753 
	C141.404037,118.993324 144.698822,118.602249 146.724945,122.729660 
z"/>
<path fill="#171717" opacity="1.000000" stroke="none" 
	d="
M119.811943,128.255127 
	C120.002060,125.224129 120.189323,122.600502 120.376587,119.976875 
	C120.743019,120.022942 121.109459,120.069008 121.475891,120.115074 
	C121.475891,126.102203 121.475891,132.089325 121.475891,138.076462 
	C120.962555,138.175522 120.449211,138.274582 119.935875,138.373642 
	C118.188789,134.660660 116.441704,130.947678 114.049408,125.863480 
	C113.558617,131.135361 113.203514,134.949692 112.848412,138.764023 
	C112.441536,138.723801 112.034653,138.683594 111.627777,138.643372 
	C111.627777,132.670441 111.627777,126.697495 111.627777,120.724548 
	C112.159164,120.537582 112.690552,120.350609 113.221939,120.163635 
	C115.038857,123.275475 116.847572,126.392220 118.699844,129.482880 
	C118.781891,129.619781 119.350388,129.635239 119.530785,129.496796 
	C119.723480,129.348923 119.724442,128.951172 119.811943,128.255127 
z"/>
<path fill="#131313" opacity="1.000000" stroke="none" 
	d="
M57.229332,108.360603 
	C57.972271,108.704529 58.306419,109.160789 58.769142,110.132439 
	C56.912121,111.524269 54.926525,112.400703 52.940926,113.277138 
	C45.687012,112.434380 41.950176,108.478813 42.947273,102.537170 
	C43.557957,98.898163 45.729252,96.530899 49.451469,96.072525 
	C50.296494,95.968468 51.505764,96.827217 52.096455,97.591354 
	C52.348312,97.917168 51.524265,99.789604 51.049736,99.849197 
	C47.162193,100.337395 45.906780,103.189407 47.473553,105.782982 
	C48.566795,107.592690 51.983315,108.072075 54.435101,108.939240 
	C55.092968,109.171928 56.018101,108.648994 57.229332,108.360603 
z"/>
<path fill="#171717" opacity="1.000000" stroke="none" 
	d="
M82.598267,136.418121 
	C82.202065,131.975647 81.555588,127.753952 82.156555,123.718002 
	C82.377647,122.233208 85.565910,120.185074 87.363129,120.222061 
	C89.170158,120.259262 92.046165,122.282326 92.476425,123.946411 
	C93.344551,127.304039 93.673157,131.228775 92.767792,134.518784 
	C91.351006,139.667252 87.238121,140.289627 82.598267,136.418121 
M89.916542,134.957901 
	C90.285919,134.056961 91.103737,133.067078 90.945778,132.270737 
	C90.316803,129.099762 89.383698,125.989128 88.563210,122.856140 
	C87.184486,123.293114 84.664574,123.624626 84.612862,124.184242 
	C84.285339,127.728447 84.343117,131.341995 84.757812,134.875870 
	C84.806496,135.290802 87.811050,135.358871 89.916542,134.957901 
z"/>
<path fill="#141414" opacity="1.000000" stroke="none" 
	d="
M97.999992,137.234131 
	C97.978783,131.498718 97.978783,126.194534 97.978783,120.658615 
	C101.161674,119.254814 104.253105,118.171013 106.630020,121.805634 
	C108.788826,125.106743 107.255951,128.991501 102.550163,132.245300 
	C103.269936,133.290253 104.064957,134.298218 104.693954,135.400909 
	C105.264557,136.401230 105.654305,137.504700 106.123787,138.562698 
	C105.746124,138.810501 105.368462,139.058304 104.990791,139.306091 
	C103.740387,137.962189 102.489983,136.618286 101.235626,135.277588 
	C99.970398,138.429886 99.970398,138.429886 97.999992,137.234131 
M104.617775,122.982986 
	C103.277084,122.661652 101.936386,122.340324 100.477280,121.990616 
	C100.477280,124.889412 100.477280,126.950195 100.477280,129.227692 
	C104.562431,129.186676 105.452278,127.042488 104.617775,122.982986 
z"/>
<path fill="#161616" opacity="1.000000" stroke="none" 
	d="
M74.932144,139.063370 
	C68.984749,140.497635 65.670166,138.510605 64.985542,133.237732 
	C64.364220,128.452423 65.034782,123.884628 68.889435,120.493996 
	C72.233894,117.552155 75.590782,118.653870 76.825378,123.515930 
	C73.581253,121.365807 70.693443,120.559425 68.743942,124.539993 
	C66.802757,128.503571 65.801178,132.756638 69.174370,136.034790 
	C70.408981,137.234619 73.787727,136.228134 76.689171,136.228134 
	C76.514069,136.561798 75.901695,137.728729 74.932144,139.063370 
z"/>
<path fill="#1D1D1D" opacity="1.000000" stroke="none" 
	d="
M126.259308,135.923737 
	C126.259308,130.813843 126.259308,125.703964 126.259308,120.124954 
	C128.686874,120.124954 131.145508,120.124954 133.604156,120.124954 
	C133.714096,120.477852 133.824036,120.830750 133.933975,121.183647 
	C132.298279,121.643723 130.662598,122.103806 128.775116,122.634712 
	C128.775116,124.787872 128.775116,127.035103 128.775116,129.445221 
	C130.470322,129.669037 132.033798,129.875458 133.729889,130.099396 
	C131.818069,131.934097 130.121201,133.562515 128.050415,135.528564 
	C127.204109,135.885376 126.731705,135.904556 126.259308,135.923737 
z"/>
<path fill="#F3F2F2" opacity="1.000000" stroke="none" 
	d="
M153.917908,77.201401 
	C151.181198,75.893227 149.930328,77.466949 148.705475,79.854843 
	C147.472565,78.438431 146.436508,76.743652 145.420395,75.081512 
	C148.318420,72.813904 151.111526,70.628387 153.904633,68.442871 
	C154.348480,68.548080 154.792343,68.653290 155.236206,68.758507 
	C154.844254,71.456604 154.452316,74.154709 153.917908,77.201401 
z"/>
<path fill="#2D2D2D" opacity="1.000000" stroke="none" 
	d="
M152.548477,132.245911 
	C152.950699,127.977654 155.651733,128.009735 158.869263,128.583496 
	C161.621185,129.074265 164.443298,129.171539 167.343369,129.453445 
	C167.154083,132.429825 165.340240,133.222610 160.902725,132.302353 
	C158.339020,131.770691 155.540741,132.370132 152.548477,132.245911 
z"/>
<path fill="#282828" opacity="1.000000" stroke="none" 
	d="
M45.651173,130.526947 
	C45.013847,129.948730 44.689957,129.155838 44.366066,128.362930 
	C46.157463,127.795944 47.949783,126.761475 49.740051,126.765015 
	C52.895145,126.771240 56.048992,127.411041 59.754921,127.851067 
	C58.416019,130.506195 56.415836,131.550964 52.740551,130.440323 
	C50.659088,129.811310 48.234600,130.317398 45.651173,130.526947 
z"/>
<path fill="#FBF2F7" opacity="1.000000" stroke="none" 
	d="
M175.090027,144.639221 
	C174.475372,145.239639 174.011856,145.541107 173.291809,145.948257 
	C171.948746,144.972809 169.058456,143.858429 171.667740,142.315659 
	C173.907211,140.991547 175.955933,135.623138 179.907196,140.834518 
	C178.451248,142.208817 176.846191,143.274551 175.090027,144.639221 
z"/>
<path fill="#DDDEDD" opacity="1.000000" stroke="none" 
	d="
M59.271385,64.276428 
	C62.516033,63.794395 64.454681,64.839096 63.749966,67.905090 
	C63.540333,68.817154 61.181644,70.068512 60.155567,69.805771 
	C56.881866,68.967476 57.772579,66.599930 59.271385,64.276428 
z"/>
<path fill="#F1F9F6" opacity="1.000000" stroke="none" 
	d="
M153.998199,156.997559 
	C153.137726,156.369888 152.277237,155.742218 150.415039,154.383850 
	C153.442673,153.519623 155.608490,152.800385 157.832397,152.449951 
	C158.019104,152.420547 158.596298,154.869278 158.660416,156.578613 
	C157.889603,156.989609 157.450439,156.988678 156.914459,156.835999 
	C156.543579,156.785187 156.269547,156.886154 155.662628,156.989044 
	C154.885910,156.993179 154.442062,156.995361 153.998199,156.997559 
z"/>
<path fill="#DCDCDC" opacity="1.000000" stroke="none" 
	d="
M38.558422,133.847656 
	C35.918339,134.118179 33.519878,134.176254 34.222958,130.928024 
	C34.399033,130.114548 36.423306,129.013824 37.389790,129.189758 
	C40.104332,129.683914 40.767380,131.414734 38.558422,133.847656 
z"/>
<path fill="#515151" opacity="1.000000" stroke="none" 
	d="
M126.182899,136.314484 
	C126.731705,135.904556 127.204109,135.885376 127.906723,135.922241 
	C130.089035,136.179321 132.041138,136.380356 133.993225,136.581375 
	C133.949432,137.031418 133.905655,137.481445 133.861862,137.931488 
	C131.155075,139.022507 128.405334,140.642715 126.182899,136.314484 
z"/>
<path fill="#E4E4E4" opacity="1.000000" stroke="none" 
	d="
M155.835602,110.252594 
	C157.295334,108.871239 158.811386,107.947281 160.635742,106.950752 
	C160.445099,108.863815 159.946121,110.849457 159.447159,112.835098 
	C158.262070,112.126732 157.076996,111.418365 155.835602,110.252594 
z"/>
<path fill="#D0D0D0" opacity="1.000000" stroke="none" 
	d="
M52.905830,113.600250 
	C54.926525,112.400703 56.912121,111.524269 59.127548,110.364075 
	C59.357380,110.080322 59.282372,109.999344 59.534122,110.211220 
	C59.845470,110.794434 59.905067,111.165779 59.964661,111.537117 
	C57.533604,113.325638 55.102551,115.114159 52.336124,116.951660 
	C52.000751,117.000648 52.021252,117.021202 52.021252,117.021202 
	C52.304413,115.988594 52.587570,114.955978 52.905830,113.600250 
z"/>
<path fill="#FBF2F7" opacity="1.000000" stroke="none" 
	d="
M153.853470,157.277832 
	C154.442062,156.995361 154.885910,156.993179 155.916595,156.991791 
	C156.672714,156.990982 156.841995,156.989365 157.011292,156.987762 
	C157.450439,156.988678 157.889603,156.989609 158.657837,156.987610 
	C159.437820,156.988342 159.888748,156.992004 160.677795,157.000824 
	C157.918137,158.251770 154.820328,159.497528 151.357544,160.721100 
	C151.897964,159.651993 152.803345,158.605042 153.853470,157.277832 
z"/>
<path fill="#131313" opacity="1.000000" stroke="none" 
	d="
M60.166611,111.239212 
	C59.905067,111.165779 59.845470,110.794434 59.519798,110.244217 
	C61.209515,108.090508 63.165302,106.115669 65.447861,104.067978 
	C63.972610,106.310524 62.170586,108.625916 60.166611,111.239212 
z"/>
<path fill="#FAF2F6" opacity="1.000000" stroke="none" 
	d="
M59.705048,158.320679 
	C57.391209,158.242508 54.879192,157.917892 52.088692,157.339493 
	C54.375763,157.415207 56.941319,157.744720 59.705048,158.320679 
z"/>
<path fill="#F9F0F5" opacity="1.000000" stroke="none" 
	d="
M196.941528,122.109909 
	C197.160583,122.989105 197.026932,124.020897 196.825989,125.434502 
	C196.063919,126.868095 195.369125,127.919884 194.417175,129.167435 
	C194.969604,126.996307 195.779205,124.629410 196.941528,122.109909 
z"/>
<path fill="#FBF2F7" opacity="1.000000" stroke="none" 
	d="
M160.477539,150.013672 
	C159.925262,150.391586 159.377289,150.484467 158.829300,150.577362 
	C158.835159,150.186600 158.841019,149.795837 158.846878,149.405075 
	C159.391861,149.512924 159.936844,149.620789 160.477539,150.013672 
z"/>
<path fill="#FAF2F6" opacity="1.000000" stroke="none" 
	d="
M67.287712,145.517548 
	C66.960480,146.036102 66.432022,146.345917 65.903557,146.655731 
	C65.784470,146.390137 65.665375,146.124542 65.546288,145.858948 
	C66.059685,145.675568 66.573082,145.492188 67.287712,145.517548 
z"/>
<path fill="#F3F2F2" opacity="1.000000" stroke="none" 
	d="
M165.049896,62.924408 
	C164.555832,63.511261 164.004776,64.149666 163.453720,64.788071 
	C163.156418,64.511765 162.859100,64.235451 162.561798,63.959137 
	C163.184021,63.629848 163.806244,63.300560 164.774078,62.933655 
	C165.119675,62.896046 164.992889,62.975964 165.049896,62.924408 
z"/>
<path fill="#D0D0D0" opacity="1.000000" stroke="none" 
	d="
M51.990959,116.990082 
	C51.559940,117.509766 51.138714,118.040031 50.717487,118.570290 
	C50.426910,118.251801 50.136330,117.933304 49.845749,117.614807 
	C50.372959,117.409904 50.900169,117.205002 51.724316,117.010651 
	C52.021252,117.021202 52.000751,117.000648 51.990959,116.990082 
z"/>
<path fill="#F9F0F5" opacity="1.000000" stroke="none" 
	d="
M197.827118,119.116882 
	C198.064163,119.649712 197.974243,120.191277 197.729919,120.960114 
	C197.550400,120.500122 197.525284,119.812874 197.827118,119.116882 
z"/>
<path fill="#FFE6F3" opacity="1.000000" stroke="none" 
	d="
M62.336555,60.469856 
	C63.254803,60.316406 64.458153,60.379055 65.960678,60.657532 
	C65.047112,60.810898 63.834385,60.748425 62.336555,60.469856 
z"/>
<path fill="#F9F0F5" opacity="1.000000" stroke="none" 
	d="
M198.550201,118.190643 
	C198.781036,118.374451 198.704300,118.656456 198.278229,119.002831 
	C198.097015,118.813995 198.201584,118.554543 198.550201,118.190643 
z"/>
<path fill="#FAF2F6" opacity="1.000000" stroke="none" 
	d="
M71.011292,157.118530 
	C71.075508,157.366318 70.837257,157.565002 70.293396,157.696533 
	C70.236534,157.447342 70.476883,157.260681 71.011292,157.118530 
z"/>
<path fill="#FAF2F6" opacity="1.000000" stroke="none" 
	d="
M78.958382,154.114594 
	C79.050079,154.366776 78.825829,154.585541 78.279510,154.752472 
	C78.203964,154.507370 78.432289,154.300888 78.958382,154.114594 
z"/>
<path fill="#FAF2F6" opacity="1.000000" stroke="none" 
	d="
M76.912689,155.094803 
	C76.988556,155.320389 76.780190,155.523407 76.278145,155.676697 
	C76.216904,155.452698 76.431564,155.267776 76.912689,155.094803 
z"/>
<path fill="#F6739F" opacity="1.000000" stroke="none" 
	d="
M49.992573,34.005829 
	C49.871479,33.873459 49.757500,33.735397 49.643520,33.597332 
	C49.729446,33.639999 49.815372,33.682667 49.956039,33.855728 
	C50.010780,33.986118 49.999687,34.000130 49.992573,34.005829 
z"/>
<path fill="#F893B6" opacity="1.000000" stroke="none" 
	d="
M74.339035,186.889648 
	C73.730560,186.099060 73.341667,185.096008 72.952766,184.092957 
	C73.415176,183.991516 73.877579,183.890076 74.339989,183.788635 
	C74.412865,184.751495 74.485741,185.714340 74.339035,186.889648 
z"/>
<path fill="#FA91B8" opacity="1.000000" stroke="none" 
	d="
M137.988266,213.008118 
	C137.342514,212.431213 136.712555,211.841675 136.082596,211.252121 
	C136.278046,211.063354 136.473511,210.874588 136.668976,210.685806 
	C137.109894,211.250717 137.550827,211.815613 138.012482,212.673737 
	C138.033218,212.966949 138.004059,212.995468 137.988266,213.008118 
z"/>
<path fill="#C4688C" opacity="1.000000" stroke="none" 
	d="
M135.007294,216.325150 
	C135.047379,216.325119 134.967224,216.325180 135.007294,216.325150 
z"/>
<path fill="#282F38" opacity="1.000000" stroke="none" 
	d="
M46.097908,222.613266 
	C46.051537,222.474655 46.232281,222.249756 46.715561,222.041931 
	C46.671089,222.103775 46.440063,222.259766 46.097908,222.613266 
z"/>
<path fill="#EFEFEF" opacity="1.000000" stroke="none" 
	d="
M89.680939,135.272827 
	C87.811050,135.358871 84.806496,135.290802 84.757812,134.875870 
	C84.343117,131.341995 84.285339,127.728447 84.612862,124.184242 
	C84.664574,123.624626 87.184486,123.293114 88.563210,122.856140 
	C89.383698,125.989128 90.316803,129.099762 90.945778,132.270737 
	C91.103737,133.067078 90.285919,134.056961 89.680939,135.272827 
z"/>
<path fill="#E1E1E1" opacity="1.000000" stroke="none" 
	d="
M104.772568,123.376846 
	C105.452278,127.042488 104.562431,129.186676 100.477280,129.227692 
	C100.477280,126.950195 100.477280,124.889412 100.477280,121.990616 
	C101.936386,122.340324 103.277084,122.661652 104.772568,123.376846 
z"/>
<path fill="#FAF9FA" opacity="1.000000" stroke="none" 
	d="
M156.914459,156.835999 
	C156.841995,156.989365 156.672714,156.990982 156.249451,156.989853 
	C156.269547,156.886154 156.543579,156.785187 156.914459,156.835999 
z"/>
</svg>